<svg width="108" height="70" viewBox="0 0 108 70" fill="none" xmlns="http://www.w3.org/2000/svg">
<path d="M99.1453 37.8035L101.039 37.8895C101.412 37.9182 104.51 37.9756 105.887 39.8976C106.776 41.0738 106.834 42.3361 106.834 43.7417L104.424 43.7131C104.395 42.8811 104.366 42.1639 103.879 41.4181C103.649 41.0164 103.248 40.5575 102.272 40.328C101.297 40.0985 99.0593 39.9837 96.4774 39.9837C95.3012 39.9837 94.0963 40.0124 92.8915 40.0124C92.1456 40.0124 91.3997 40.0124 90.6252 40.0698C88.9326 40.2132 88.072 40.5288 87.5843 41.0451C86.8671 41.8484 86.8385 43.2254 86.8385 43.5696C86.8385 45.0327 87.3548 45.7212 87.7565 46.0367C88.2728 46.4384 89.1334 46.6679 90.5678 46.7539C91.8301 46.84 93.0923 46.84 94.3545 46.84C96.4487 46.8973 98.5429 46.8973 100.637 47.0121C103.649 47.1842 104.998 47.5572 106.088 48.7333C106.719 49.3931 107.293 50.3685 107.293 52.4053C107.293 55.4749 106.518 56.6224 105.284 57.3969C103.707 58.401 101.813 58.5444 100.092 58.5731H96.1045C92.8054 58.5731 90.5391 58.5157 89.1621 58.3436C88.8179 58.3149 86.7237 58.0567 85.5475 56.8805C85.2033 56.565 85.0025 56.2494 84.8017 55.8478C84.2279 54.6429 84.2279 53.2659 84.1992 52.0037L86.7237 52.0324C86.7237 52.0611 86.5229 54.3847 87.527 55.3601C87.8999 55.733 88.4736 55.8765 88.6171 55.9052C89.8219 56.2207 93.0923 56.3642 96.5921 56.3642C98.0265 56.3642 99.4322 56.3355 100.838 56.2494C100.838 56.2494 102.817 56.2207 103.764 55.5609C104.883 54.7577 104.94 52.9504 104.94 52.7209C104.94 52.5201 104.911 51.6594 104.625 50.9136C104.252 49.9095 103.534 49.4792 101.526 49.3358C100.465 49.2784 99.3748 49.2497 98.2847 49.221C95.9897 49.1636 93.6947 49.135 91.3997 49.0489C88.3302 48.9055 86.9819 48.7046 85.7483 47.6719C84.5722 46.6392 84.3427 45.4056 84.3427 43.8852C84.3427 41.6763 84.5722 39.7829 86.609 38.6641C87.7278 38.033 88.7892 38.0617 89.9941 37.9756C90.7112 37.9182 91.3997 37.8608 92.0882 37.8035C93.207 37.7461 94.2972 37.7461 95.3873 37.7461C96.6495 37.7461 97.9118 37.7748 99.1453 37.8035Z" fill="white"/>
<path d="M59.8437 38.0898L69.2532 47.6427L78.6052 38.0898H82.0477C80.2691 39.9258 78.4905 41.7618 76.6545 43.5691C74.9333 45.2617 73.1833 46.8969 71.5482 48.6755C71.1752 49.0771 70.831 49.4787 70.458 49.8803V58.3431H67.8762V49.823L56.2578 38.0898H59.8437Z" fill="white"/>
<path d="M40.149 38.0898H43.5341L55.4394 58.3431H52.5706L49.8453 53.7244H33.5509L30.9691 58.3431H28.043L40.149 38.0898ZM41.8416 39.6963L34.6697 51.8024H48.7265L41.8416 39.6963Z" fill="white"/>
<path d="M0.705078 38.0898H17.229C17.7167 38.0898 18.233 38.0898 18.7207 38.1472C21.2165 38.3193 23.1959 39.2373 24.3434 41.561C25.0319 42.9667 25.2901 44.8027 25.2901 48.1304C25.2901 48.7042 25.2901 50.5688 24.9746 52.4909C24.659 54.1834 24.2287 55.1014 23.8557 55.7039C23.5976 56.0481 23.1959 56.6219 22.2779 57.1956C20.7288 58.1423 19.2084 58.257 17.5158 58.3431H0.705078V38.0898ZM3.20087 40.1266V56.1915H16.1102C18.2617 56.0768 19.5526 55.962 20.4706 55.4457C21.0157 55.1301 21.819 54.4416 22.2779 53.0073C22.5361 52.1466 22.7656 50.4828 22.7656 48.2165C22.7656 47.4706 22.7369 46.7247 22.6796 45.9789C22.5074 43.1101 21.905 41.8192 20.6715 40.9873C19.4953 40.1553 18.2904 40.1266 16.8847 40.1266H3.20087Z" fill="white"/>
<path d="M74.1688 62.4521L77.6354 65.9716L81.0809 62.4521H82.3492C81.6939 63.1286 81.0386 63.805 80.3622 64.4708C79.7281 65.0944 79.0834 65.6968 78.4809 66.3521C78.3435 66.5001 78.2167 66.648 78.0793 66.796V69.9139H77.1281V66.7749L72.8477 62.4521H74.1688Z" fill="#CC9B12"/>
<path d="M72.017 64.8527H71.1186C71.1081 64.5779 71.0975 64.2608 71.0235 63.986C70.8861 63.4893 70.5902 63.3202 69.7024 63.2462C69.0471 63.2039 68.4024 63.1722 67.7471 63.1722C67.1447 63.1722 66.5422 63.1933 65.9398 63.2145C65.5593 63.2356 64.9675 63.2779 64.6292 63.5316C64.2699 63.8169 64.2276 64.4088 64.1959 64.821C64.1536 65.3072 64.1219 65.7933 64.1219 66.2901C64.1219 66.7023 64.1431 67.125 64.1536 67.5372C64.1853 67.9071 64.2065 68.3405 64.4179 68.6787C64.6504 69.0274 65.0626 69.1226 65.8341 69.1648H69.6601C70.0512 69.1437 70.5796 69.112 70.8755 68.7844C71.1715 68.4461 71.1503 67.886 71.1398 67.4844L72.0804 67.4949C72.0804 67.7592 72.091 68.0234 72.0593 68.2876C71.9641 69.2177 71.5625 69.5559 71.182 69.7356C70.6747 69.9787 70.1463 69.9892 69.6178 69.9998H65.9821C65.8553 69.9998 65.7284 69.9892 65.6016 69.9892C65.0626 69.9681 64.4601 69.8835 63.9845 69.5559C63.7626 69.3974 63.6463 69.2283 63.5935 69.1437C63.2024 68.5413 63.1813 67.7803 63.1602 67.1145L63.2024 64.7893C63.2236 64.6519 63.2341 64.5145 63.2447 64.3771C63.2764 64.1974 63.3715 63.4576 63.8683 62.9925C64.3439 62.5381 64.9358 62.4641 65.5488 62.4112C66.2674 62.3901 66.9756 62.3584 67.6943 62.3584C68.4869 62.3584 69.2796 62.4007 70.0723 62.4535C70.1991 62.4641 70.3259 62.4747 70.4528 62.4958C70.6007 62.5169 71.0658 62.5909 71.4357 62.908C72.017 63.3942 72.0276 64.1763 72.017 64.8527Z" fill="#CC9B12"/>
<path d="M56.5695 62.4521H57.8166L62.2028 69.9139H61.1459L60.1418 68.2123H54.1386L53.1874 69.9139H52.1094L56.5695 62.4521ZM57.1931 63.044L54.5508 67.5041H59.7296L57.1931 63.044Z" fill="#CC9B12"/>
<path d="M51.0965 64.6623H50.1558C50.1664 64.2924 50.1664 63.8167 49.8705 63.542C49.564 63.2566 48.9721 63.2249 48.6022 63.2037C47.9363 63.172 47.2705 63.1509 46.6046 63.1509C45.8965 63.1509 45.1989 63.172 44.4908 63.1826C44.0786 63.2143 43.4551 63.2672 43.1486 63.6054C42.8632 63.9224 42.8315 64.4932 42.8209 64.8737V67.4525C42.8315 67.8753 42.8632 68.446 43.2014 68.7736C43.529 69.0907 44.1103 69.1118 44.5225 69.133H48.4331C48.5176 69.1224 48.6022 69.1224 48.6762 69.1224C49.4477 69.0801 49.807 68.837 49.9867 68.5094C50.1452 68.1923 50.1981 67.7167 50.2192 66.9769H46.3298V66.2371H51.1282C51.1387 67.4525 51.1176 68.1923 50.9168 68.7313C50.8322 68.9533 50.6631 69.3443 50.1347 69.6508C49.7225 69.8834 49.342 69.9045 48.8875 69.9362C48.1794 69.9679 47.4713 69.9996 46.7632 69.9996C45.9282 69.9996 45.1038 69.9679 44.2583 69.9362C44.0892 69.9256 43.9201 69.9151 43.7404 69.8939C42.7998 69.7777 42.3982 69.3866 42.1868 69.0167C41.9014 68.5094 41.8591 67.9387 41.8169 67.3891C41.8063 66.998 41.7852 66.607 41.7852 66.2053C41.7852 65.7192 41.8169 65.2436 41.8486 64.7574C41.8591 64.62 41.8803 64.4826 41.8908 64.3346C41.986 63.6794 42.2185 63.1192 42.7998 62.7598C43.2648 62.4851 43.6981 62.4533 44.2266 62.4111C44.8819 62.3794 45.5477 62.3477 46.203 62.3477C47.0591 62.3477 47.9152 62.3794 48.7713 62.4111C49.5534 62.4851 50.3883 62.6013 50.8217 63.3834C51.0436 63.7956 51.0753 64.2184 51.0965 64.6623Z" fill="#CC9B12"/>
<path d="M32.8223 62.4521H40.3368V63.192H33.7312V65.6651H40.1149V66.4155H33.7206V69.1423H40.3685V69.9139H32.8223V62.4521Z" fill="#CC9B12"/>
<path d="M24.8633 62.4521H25.7828V69.1001H31.6697V69.9139H24.8633V62.4521Z" fill="#CC9B12"/>
<path fill-rule="evenodd" clip-rule="evenodd" d="M45.2459 5.28451C45.2459 3.19983 46.9359 1.50986 49.0206 1.50986H57.3248C59.4095 1.50986 61.0994 3.19983 61.0994 5.28451V33.9718H62.6093V5.28451C62.6093 2.36595 60.2433 0 57.3248 0H49.0206C46.102 0 43.7361 2.36595 43.7361 5.28451V33.9718H45.2459V5.28451ZM27.8825 15.0986C25.7979 15.0986 24.1079 16.7886 24.1079 18.8732V33.9718H22.598V18.8732C22.598 15.9547 24.964 13.5887 27.8825 13.5887H36.1868C39.1053 13.5887 41.4713 15.9547 41.4713 18.8732V33.9718H39.9614V18.8732C39.9614 16.7886 38.2714 15.0986 36.1868 15.0986H27.8825ZM5.98958 25.6676C3.9049 25.6676 2.21494 27.3576 2.21494 29.4423V33.9718H0.705078V29.4423C0.705078 26.5237 3.07103 24.1577 5.98958 24.1577H14.2938C17.2124 24.1577 19.5783 26.5237 19.5783 29.4423V33.9718H18.0685V29.4423C18.0685 27.3576 16.3785 25.6676 14.2938 25.6676H5.98958ZM70.9135 21.138C68.8288 21.138 67.1389 22.828 67.1389 24.9127V33.9718H65.629V24.9127C65.629 21.9941 67.995 19.6282 70.9135 19.6282H79.2177C82.1363 19.6282 84.5023 21.9941 84.5023 24.9127V33.9718H82.9924V24.9127C82.9924 22.828 81.3024 21.138 79.2177 21.138H70.9135ZM88.2725 29.4423C88.2725 27.3576 89.9625 25.6676 92.0472 25.6676H100.351C102.436 25.6676 104.126 27.3576 104.126 29.4423V33.9718H105.636V29.4423C105.636 26.5237 103.27 24.1577 100.351 24.1577H92.0472C89.1286 24.1577 86.7627 26.5237 86.7627 29.4423V33.9718H88.2725V29.4423Z" fill="url(#paint0_linear_5181_12718)"/>
<defs>
<linearGradient id="paint0_linear_5181_12718" x1="53.1705" y1="0" x2="53.1705" y2="33.9718" gradientUnits="userSpaceOnUse">
<stop stop-color="#CC9B12"/>
<stop offset="0.380208" stop-color="#FFEEBE"/>
<stop offset="1" stop-color="#A27700"/>
</linearGradient>
</defs>
</svg>
