<svg width="247" height="242" viewBox="0 0 247 242" fill="none" xmlns="http://www.w3.org/2000/svg">
<path d="M27.312 195.177C9.57062 170.616 56.9674 123.573 59.4515 95.7152C62.4084 62.6033 27.7115 39.8406 56.6078 18.9759C109.812 -19.4504 192.445 7.06171 224.258 49.8567C263.823 103.074 247.84 177.576 194.636 215.995C170.894 233.144 146.54 229.248 120.787 237.972C82.081 251.085 48.8094 224.946 27.312 195.171V195.177Z" stroke="url(#paint0_linear_15_410)" stroke-width="0.332983" stroke-miterlimit="10"/>
<path d="M27.8775 194.505C9.94303 170.23 53.8968 125.644 56.847 96.0017C60.2035 62.2372 28.064 41.6122 57.2133 20.3746C109.758 -17.792 191.865 6.82213 223.232 48.9978C262.131 101.309 245.475 171.589 195.861 210.415C173.451 227.95 150.748 226.724 125.129 234.969C85.2039 247.822 50.9666 225.752 27.8775 194.505Z" stroke="url(#paint1_linear_15_410)" stroke-width="0.332983" stroke-miterlimit="10"/>
<path d="M28.4375 193.832C10.3365 169.837 50.814 127.722 54.237 96.2946C57.9798 61.8841 28.4108 43.3902 57.8133 21.7796C109.699 -16.1272 191.286 6.58892 222.2 48.1386C260.44 99.5445 243.085 165.682 197.08 204.827C175.969 222.788 154.938 224.173 129.465 231.959C88.3012 244.539 53.1315 226.551 28.4441 193.832H28.4375Z" stroke="url(#paint2_linear_15_410)" stroke-width="0.332983" stroke-miterlimit="10"/>
<path d="M29.0033 193.16C10.7492 169.431 47.7303 129.793 51.6329 96.5811C55.7552 61.5179 28.7236 45.1019 58.4257 23.1783C109.579 -14.5687 190.72 6.34929 221.175 47.2796C258.748 97.7732 240.687 159.868 198.305 199.246C178.473 217.674 159.133 221.61 133.8 228.955C91.3977 241.249 55.309 227.35 29.0033 193.16Z" stroke="url(#paint3_linear_15_410)" stroke-width="0.332983" stroke-miterlimit="10"/>
<path d="M29.5632 192.487C11.1692 169.012 44.6274 131.871 49.0228 96.8674C53.5047 61.1516 29.0638 46.8533 59.0256 24.5834C109.499 -12.9305 190.134 6.11615 220.143 46.4271C257.051 96.015 238.284 154.16 199.518 193.666C180.931 212.606 163.303 219.039 138.129 225.952C94.4683 237.939 57.4939 228.136 29.5632 192.494V192.487Z" stroke="url(#paint4_linear_15_410)" stroke-width="0.332983" stroke-miterlimit="10"/>
<path d="M30.1283 191.808C11.6078 168.579 41.5296 133.935 46.4178 97.1471C51.2527 60.7787 29.4024 48.6048 59.6373 25.9753C109.432 -11.2989 189.567 5.86973 219.123 45.5613C255.371 94.2435 235.912 148.566 200.749 188.071C183.394 207.571 167.49 216.435 142.47 222.935C97.5507 234.603 59.7038 228.909 30.1283 191.808Z" stroke="url(#paint5_linear_15_410)" stroke-width="0.332983" stroke-miterlimit="10"/>
<path d="M30.6887 191.135C12.055 168.146 38.4139 136.006 43.8083 97.4334C48.9828 60.4123 29.7431 50.3629 60.2377 27.3737C109.359 -9.66066 188.982 5.62994 218.085 44.7022C253.668 92.4786 233.555 143.105 201.962 182.491C185.826 202.609 171.654 213.831 146.8 219.931C100.609 231.266 61.9159 229.681 30.6887 191.142V191.135Z" stroke="url(#paint6_linear_15_410)" stroke-width="0.332983" stroke-miterlimit="10"/>
<path d="M31.2548 190.462C12.5212 167.699 35.2972 138.077 41.2044 97.7197C46.7186 60.0394 30.0894 52.121 60.8437 28.7722C109.299 -8.01574 188.41 5.39016 217.059 43.8364C251.976 90.7005 231.265 137.771 203.187 176.896C188.263 197.695 175.823 211.2 151.135 216.914C103.672 227.896 64.1469 230.427 31.2482 190.456L31.2548 190.462Z" stroke="url(#paint7_linear_15_410)" stroke-width="0.332983" stroke-miterlimit="10"/>
<path d="M31.8145 189.79C12.9876 167.253 32.1675 140.148 38.5941 98.006C44.4412 59.673 30.436 53.8858 61.45 30.1774C109.233 -6.35755 187.837 5.15701 216.034 42.9839C250.291 88.9422 229.047 132.59 204.413 171.322C190.714 192.86 179.992 208.583 155.478 213.911C106.729 224.52 66.3981 231.179 31.8212 189.79H31.8145Z" stroke="url(#paint8_linear_15_410)" stroke-width="0.332983" stroke-miterlimit="10"/>
<path d="M32.3801 189.117C13.4667 166.801 29.037 142.22 35.9897 98.2927C42.1565 59.3004 30.7818 55.6509 62.0556 31.5762C109.179 -4.69901 187.257 4.9242 215.001 42.1251C248.593 87.1777 226.929 127.529 205.631 165.735C193.178 188.078 184.147 205.933 159.813 210.901C109.779 221.117 68.6553 231.912 32.3801 189.117Z" stroke="url(#paint9_linear_15_410)" stroke-width="0.332983" stroke-miterlimit="10"/>
<path d="M32.9391 188.438C13.9457 166.334 25.8998 144.278 33.3786 98.5722C39.8652 58.9273 31.1277 57.4089 62.6545 32.9679C109.112 -3.05423 186.677 4.67764 213.969 41.2592C246.894 85.3994 224.917 122.58 206.85 160.147C195.688 183.356 188.302 203.282 164.141 207.891C112.815 217.687 70.9192 232.638 32.9324 188.438H32.9391Z" stroke="url(#paint10_linear_15_410)" stroke-width="0.332983" stroke-miterlimit="10"/>
<path d="M33.5053 187.765C14.432 165.868 22.7566 146.349 30.7748 98.8586C37.581 58.5543 31.4807 59.1803 63.2673 34.3664C109.072 -1.38934 186.105 4.43787 212.943 40.4001C245.203 83.6346 223.053 117.739 208.075 154.56C198.259 178.688 192.465 200.612 168.483 204.88C115.859 214.244 73.2035 233.35 33.5053 187.765Z" stroke="url(#paint11_linear_15_410)" stroke-width="0.332983" stroke-miterlimit="10"/>
<path d="M34.0655 187.092C14.9256 165.395 19.6074 148.413 28.165 99.1516C35.2842 58.188 31.8345 60.9584 63.8675 35.7782C109.013 0.288842 185.526 4.21138 211.912 39.5476C243.512 81.8764 221.315 112.984 209.295 148.979C200.91 174.079 196.615 197.948 172.813 201.877C118.89 210.788 75.4953 234.063 34.0588 187.092H34.0655Z" stroke="url(#paint12_linear_15_410)" stroke-width="0.332983" stroke-miterlimit="10"/>
<path d="M34.6308 186.42C15.4244 164.922 16.4566 150.478 25.5604 99.4379C32.9859 57.815 32.1934 62.7365 64.4795 37.1767C108.973 1.95375 184.959 3.97163 210.892 38.6885C241.826 80.1116 219.743 108.275 210.526 143.398C203.68 169.498 200.783 195.27 177.161 198.873C121.939 207.304 77.8188 234.756 34.6375 186.426L34.6308 186.42Z" stroke="url(#paint13_linear_15_410)" stroke-width="0.332983" stroke-miterlimit="10"/>
<path d="M35.1905 185.747C15.9174 164.443 13.2935 152.542 22.95 99.7244C30.6819 57.4355 32.5466 64.5147 65.079 38.5753C108.92 3.62543 184.374 3.73199 209.853 37.8295C240.122 78.3402 218.291 103.58 211.738 137.811C206.544 164.929 204.925 192.573 181.49 195.863C124.963 203.788 80.1299 235.435 35.1905 185.747Z" stroke="url(#paint14_linear_15_410)" stroke-width="0.332983" stroke-miterlimit="10"/>
<path d="M35.7564 185.068C16.4301 163.95 10.1301 154.6 20.346 100.004C28.3775 57.0559 32.9061 66.2862 65.685 39.9672C108.88 5.29029 183.801 3.48551 208.828 36.9636C238.437 76.5687 216.993 98.8586 212.963 132.223C209.56 160.354 209.081 189.876 185.825 192.853C127.993 200.252 82.4607 236.101 35.7564 185.075V185.068Z" stroke="url(#paint15_linear_15_410)" stroke-width="0.332983" stroke-miterlimit="10"/>
<path d="M36.3158 184.395C16.9295 163.471 6.95998 156.665 17.7353 100.291C26.0666 56.6831 33.2656 68.0645 66.2909 41.3726C108.84 6.97539 183.221 3.25264 207.802 36.1048C236.745 74.8041 215.82 94.0905 214.189 126.636C212.73 155.752 213.236 187.173 190.167 189.843C131.03 196.689 84.8114 236.747 36.3224 184.395H36.3158Z" stroke="url(#paint16_linear_15_410)" stroke-width="0.332983" stroke-miterlimit="10"/>
<path d="M36.8821 183.723C17.4425 162.978 3.79022 158.722 15.1316 100.577C23.7626 56.3033 33.6322 69.8491 66.8972 42.7709C108.8 8.66007 182.649 3.01267 206.77 35.2454C235.047 73.039 214.742 89.242 215.408 121.049C216.034 151.097 217.392 184.455 194.496 186.833C134.053 193.099 87.1626 237.386 36.8754 183.723H36.8821Z" stroke="url(#paint17_linear_15_410)" stroke-width="0.332983" stroke-miterlimit="10"/>
<path d="M37.4412 183.05C17.955 162.485 0.613241 160.78 12.5207 100.863C21.4513 55.9236 33.9915 71.6404 67.5029 44.1693C108.766 10.3382 182.076 2.77279 205.744 34.3862C233.362 71.2674 213.749 84.2804 216.633 115.468C219.49 146.362 221.548 181.745 198.838 183.822C137.09 189.483 89.5397 238.012 37.4478 183.05H37.4412Z" stroke="url(#paint18_linear_15_410)" stroke-width="0.332983" stroke-miterlimit="10"/>
<path d="M38.0072 182.377C18.4678 161.992 -2.65668 162.824 9.91676 101.149C19.0738 55.5372 34.4043 73.4784 68.1089 45.5677C108.786 12.0829 181.496 2.53296 204.719 33.527C231.67 69.5025 212.81 79.1923 217.858 109.88C223.066 141.527 225.71 179.014 203.174 180.812C140.12 185.847 91.9239 238.625 38.0072 182.371V182.377Z" stroke="url(#paint19_linear_15_410)" stroke-width="0.332983" stroke-miterlimit="10"/>
<path d="M38.5671 181.705C18.9811 161.493 -5.79288 164.889 7.30668 101.436C16.79 55.1644 34.7578 75.2499 68.7088 46.973C108.727 13.7479 180.917 2.30663 203.68 32.6747C229.966 67.7445 211.885 73.9646 219.071 104.306C226.716 136.592 229.859 176.297 207.503 177.815C143.144 182.191 94.3152 239.238 38.5671 181.711V181.705Z" stroke="url(#paint20_linear_15_410)" stroke-width="0.332983" stroke-miterlimit="10"/>
<path d="M39.1265 181.025C19.4938 160.986 -8.93632 166.953 4.69601 101.722C14.5057 54.7913 35.104 77.0213 69.3147 48.3714C108.673 15.4061 180.345 2.06677 202.655 31.8088C228.281 65.9662 210.972 68.5768 220.296 98.7118C230.445 131.517 234.022 173.553 211.845 174.798C146.187 178.488 96.7259 239.81 39.1331 181.025H39.1265Z" stroke="url(#paint21_linear_15_410)" stroke-width="0.332983" stroke-miterlimit="10"/>
<defs>
<linearGradient id="paint0_linear_15_410" x1="221.968" y1="46.0398" x2="22.668" y2="189.991" gradientUnits="userSpaceOnUse">
<stop stop-color="#A4E9FD"/>
<stop offset="0.42" stop-color="#75AEE2"/>
<stop offset="1" stop-color="#3158BC"/>
</linearGradient>
<linearGradient id="paint1_linear_15_410" x1="221.035" y1="45.3123" x2="22.6938" y2="188.571" gradientUnits="userSpaceOnUse">
<stop stop-color="#9FE2FB"/>
<stop offset="0.49" stop-color="#6BA1DE"/>
<stop offset="1" stop-color="#345CBF"/>
</linearGradient>
<linearGradient id="paint2_linear_15_410" x1="220.149" y1="44.648" x2="22.7613" y2="187.218" gradientUnits="userSpaceOnUse">
<stop stop-color="#99DBF9"/>
<stop offset="0.59" stop-color="#6093D9"/>
<stop offset="1" stop-color="#3760C2"/>
</linearGradient>
<linearGradient id="paint3_linear_15_410" x1="219.334" y1="44.0935" x2="22.9045" y2="185.972" gradientUnits="userSpaceOnUse">
<stop stop-color="#94D4F7"/>
<stop offset="0.73" stop-color="#5383D2"/>
<stop offset="1" stop-color="#3A64C5"/>
</linearGradient>
<linearGradient id="paint4_linear_15_410" x1="218.643" y1="43.6991" x2="23.1668" y2="184.889" gradientUnits="userSpaceOnUse">
<stop stop-color="#8ECDF5"/>
<stop offset="0.93" stop-color="#446FCB"/>
<stop offset="1" stop-color="#3E68C8"/>
</linearGradient>
<linearGradient id="paint5_linear_15_410" x1="218.119" y1="43.5375" x2="23.5905" y2="184.043" gradientUnits="userSpaceOnUse">
<stop stop-color="#89C6F3"/>
<stop offset="1" stop-color="#416CCB"/>
</linearGradient>
<linearGradient id="paint6_linear_15_410" x1="217.783" y1="43.6442" x2="24.2074" y2="183.461" gradientUnits="userSpaceOnUse">
<stop stop-color="#83BFF1"/>
<stop offset="1" stop-color="#4470CE"/>
</linearGradient>
<linearGradient id="paint7_linear_15_410" x1="217.615" y1="43.9746" x2="24.9823" y2="183.111" gradientUnits="userSpaceOnUse">
<stop stop-color="#7EB8EF"/>
<stop offset="1" stop-color="#4774D1"/>
</linearGradient>
<linearGradient id="paint8_linear_15_410" x1="217.559" y1="44.4585" x2="25.8631" y2="182.917" gradientUnits="userSpaceOnUse">
<stop stop-color="#78B1ED"/>
<stop offset="1" stop-color="#4A78D4"/>
</linearGradient>
<linearGradient id="paint9_linear_15_410" x1="217.573" y1="45.0522" x2="26.809" y2="182.838" gradientUnits="userSpaceOnUse">
<stop stop-color="#73AAEB"/>
<stop offset="1" stop-color="#4D7CD7"/>
</linearGradient>
<linearGradient id="paint10_linear_15_410" x1="217.638" y1="45.7053" x2="27.7957" y2="182.825" gradientUnits="userSpaceOnUse">
<stop stop-color="#6DA3E9"/>
<stop offset="1" stop-color="#5080DA"/>
</linearGradient>
<linearGradient id="paint11_linear_15_410" x1="217.734" y1="46.4008" x2="28.7924" y2="182.87" gradientUnits="userSpaceOnUse">
<stop stop-color="#689DE7"/>
<stop offset="1" stop-color="#5485DE"/>
</linearGradient>
<linearGradient id="paint12_linear_15_410" x1="217.848" y1="47.1318" x2="29.7866" y2="182.966" gradientUnits="userSpaceOnUse">
<stop stop-color="#6296E5"/>
<stop offset="1" stop-color="#5789E1"/>
</linearGradient>
<linearGradient id="paint13_linear_15_410" x1="217.982" y1="47.8802" x2="30.7475" y2="183.116" gradientUnits="userSpaceOnUse">
<stop stop-color="#5D8FE3"/>
<stop offset="1" stop-color="#5A8DE4"/>
</linearGradient>
<linearGradient id="paint14_linear_15_410" x1="218.127" y1="48.6446" x2="31.6265" y2="183.351" gradientUnits="userSpaceOnUse">
<stop stop-color="#5788E1"/>
<stop offset="1" stop-color="#5D91E7"/>
</linearGradient>
<linearGradient id="paint15_linear_15_410" x1="218.281" y1="49.4194" x2="32.3557" y2="183.71" gradientUnits="userSpaceOnUse">
<stop stop-color="#5281DF"/>
<stop offset="1" stop-color="#6095EA"/>
</linearGradient>
<linearGradient id="paint16_linear_15_410" x1="218.18" y1="49.8544" x2="32.5904" y2="183.903" gradientUnits="userSpaceOnUse">
<stop stop-color="#4C7ADD"/>
<stop offset="1" stop-color="#6399ED"/>
</linearGradient>
<linearGradient id="paint17_linear_15_410" x1="217.955" y1="50.1053" x2="32.3918" y2="184.135" gradientUnits="userSpaceOnUse">
<stop stop-color="#4773DB"/>
<stop offset="1" stop-color="#669DF0"/>
</linearGradient>
<linearGradient id="paint18_linear_15_410" x1="217.665" y1="50.2663" x2="31.8344" y2="184.489" gradientUnits="userSpaceOnUse">
<stop stop-color="#416CD9"/>
<stop offset="1" stop-color="#6AA1F3"/>
</linearGradient>
<linearGradient id="paint19_linear_15_410" x1="217.318" y1="50.348" x2="30.9477" y2="184.96" gradientUnits="userSpaceOnUse">
<stop stop-color="#3C65D7"/>
<stop offset="1" stop-color="#6DA5F6"/>
</linearGradient>
<linearGradient id="paint20_linear_15_410" x1="216.933" y1="50.377" x2="29.84" y2="185.511" gradientUnits="userSpaceOnUse">
<stop stop-color="#365ED5"/>
<stop offset="0.14" stop-color="#3E69DA"/>
<stop offset="1" stop-color="#70A9F9"/>
</linearGradient>
<linearGradient id="paint21_linear_15_410" x1="216.513" y1="50.3582" x2="28.5245" y2="186.139" gradientUnits="userSpaceOnUse">
<stop stop-color="#3157D3"/>
<stop offset="0.32" stop-color="#4673E0"/>
<stop offset="1" stop-color="#73ADFC"/>
</linearGradient>
</defs>
</svg>
