<svg width="207" height="215" viewBox="0 0 207 215" fill="none" xmlns="http://www.w3.org/2000/svg">
<path d="M162.843 14.5035C186.585 26.8904 206.551 49.7131 204.799 83.391C203.267 112.867 211.878 128.73 197.154 156.954C183.595 182.94 160.785 200.967 134.873 209.106C108.96 217.25 79.9372 215.505 53.9578 201.946C30.4492 189.679 16.2708 167.962 7.92625 144.913C-2.17646 117.016 -2.73587 86.3812 12.1152 57.9245C24.2158 34.7355 43.0227 27.4432 63.1948 13.9707C92.7903 -5.7952 134.067 -0.514083 162.843 14.5035Z" stroke="url(#paint0_linear_15_387)" stroke-width="0.332983" stroke-miterlimit="10"/>
<path d="M163.722 17.2006C186.491 30.2869 205.431 52.1905 203.507 84.6963C201.828 113.126 209.534 128.51 195.668 156.368C182.329 183.173 159.826 200.515 133.82 207.114C107.787 213.687 79.7568 213.654 53.804 200.102C30.1955 187.768 16.8562 165.984 9.41072 143.281C9.07108 142.242 8.73144 141.204 8.43841 140.158C0.726524 112.84 -0.325707 84.097 14.4388 57.3451C22.4237 42.8803 33.0925 34.7822 45.4129 27.2634C51.8594 23.3275 58.6922 19.4649 65.7115 14.9297C95.0673 -4.13026 135.605 1.0443 163.715 17.2006H163.722Z" stroke="url(#paint1_linear_15_387)" stroke-width="0.332983" stroke-miterlimit="10"/>
<path d="M164.602 19.8979C186.392 33.6567 204.32 54.6613 202.215 86.0017C200.397 113.393 207.217 128.317 194.184 155.782C181.071 183.433 158.868 200.062 132.768 205.116C106.616 210.118 79.571 211.803 53.6516 198.25C29.9498 185.857 17.3831 164.013 10.8966 141.643C10.5969 140.618 10.2905 139.599 10.0508 138.56C3.6575 110.922 1.49977 82.8783 16.7571 56.7591C24.8286 42.947 35.4374 35.1085 47.9776 27.7896C54.4108 24.0335 61.2236 20.2775 68.2363 15.8821C97.3989 -2.40534 137.144 2.56277 164.595 19.8979H164.602Z" stroke="url(#paint2_linear_15_387)" stroke-width="0.332983" stroke-miterlimit="10"/>
<path d="M165.48 22.6016C186.292 36.9932 203.201 57.1453 200.916 87.3136C198.952 113.659 204.919 128.151 192.692 155.209C179.812 183.712 157.895 199.622 131.709 203.132C105.437 206.562 79.3775 209.965 53.4914 196.412C29.6964 183.952 17.9354 162.048 12.3746 140.025C12.1215 139.013 11.8485 138.007 11.662 136.981C6.60731 108.971 3.31078 81.6862 19.0809 56.1863C27.219 43.0268 37.7812 35.4481 50.5411 28.3356C56.9477 24.7594 63.7539 21.0965 70.7599 16.8477C99.7028 -0.707201 138.668 4.06112 165.48 22.6016Z" stroke="url(#paint3_linear_15_387)" stroke-width="0.332983" stroke-miterlimit="10"/>
<path d="M166.36 25.2986C186.199 40.2962 202.082 59.6225 199.625 88.6254C197.52 113.932 202.661 128.004 191.213 154.629C178.58 184.005 156.943 199.236 130.664 201.14C104.271 203.058 79.1978 208.113 53.345 194.567C29.4501 182.047 18.5016 160.077 13.8599 138.393C13.6468 137.394 13.407 136.402 13.2738 135.396C9.57769 106.979 5.1024 80.4939 21.3986 55.6067C29.59 43.0932 40.1123 35.7743 53.0986 28.8682C59.4852 25.4718 66.2714 21.9022 73.2774 17.7998C101.994 0.977517 140.18 5.51275 166.353 25.2986H166.36Z" stroke="url(#paint4_linear_15_387)" stroke-width="0.332983" stroke-miterlimit="10"/>
<path d="M167.238 27.9957C186.112 43.566 200.963 62.0998 198.332 89.9306C196.081 114.192 200.43 127.871 189.728 154.043C177.354 184.305 155.977 198.796 129.611 199.149C103.099 199.502 79.0177 206.268 53.1915 192.722C29.2034 180.136 19.0607 158.099 15.3446 136.761C15.1715 135.776 14.9717 134.797 14.8918 133.804C12.5875 104.941 6.8802 79.3018 23.7292 55.0273C31.9672 43.1664 42.4561 36.1005 55.6689 29.4009C62.0289 26.1776 68.8018 22.7146 75.8011 18.7588C104.291 2.66234 141.705 6.93785 167.238 27.9957Z" stroke="url(#paint5_linear_15_387)" stroke-width="0.332983" stroke-miterlimit="10"/>
<path d="M168.118 30.6929C186.039 46.8026 199.844 64.5773 197.041 91.2359C194.65 114.458 198.219 127.751 188.243 153.464C176.149 184.624 155.012 198.357 128.566 197.158C101.927 195.946 78.8383 204.417 53.0454 190.878C28.9574 178.231 19.6272 156.114 16.8368 135.13C16.7103 134.157 16.5438 133.185 16.5105 132.213C15.6314 102.877 8.63208 78.103 26.0538 54.4412C34.3184 43.2197 44.7874 36.4135 58.2333 29.9337C64.5666 26.8836 71.3262 23.5138 78.3255 19.7111C106.582 4.3406 143.237 8.31642 168.118 30.6862V30.6929Z" stroke="url(#paint6_linear_15_387)" stroke-width="0.332983" stroke-miterlimit="10"/>
<path d="M168.997 33.3969C185.972 50.0194 198.732 67.0615 195.742 92.548C193.211 114.725 196.035 127.651 186.751 152.885C174.957 184.958 154.039 197.917 127.507 195.167C100.742 192.39 78.6449 202.572 52.8853 189.04C28.7041 176.327 20.1864 154.143 18.315 133.505C18.2284 132.546 18.1019 131.587 18.1219 130.635C18.7146 100.799 10.3567 76.9245 28.3711 53.8754C36.6424 43.2865 47.1048 36.7401 60.797 30.48C67.0971 27.5963 73.85 24.3331 80.8493 20.6769C108.873 6.02569 144.775 9.67518 169.003 33.3969H168.997Z" stroke="url(#paint7_linear_15_387)" stroke-width="0.332983" stroke-miterlimit="10"/>
<path d="M169.876 36.094C185.926 53.2026 197.614 69.5388 194.45 93.8599C191.773 114.998 193.878 127.564 185.273 152.312C173.792 185.31 153.081 197.484 126.462 193.189C99.5702 188.847 78.4657 200.734 52.7394 187.208C28.4583 174.435 20.7664 152.172 19.8074 131.887C19.7608 130.941 19.6742 129.995 19.7408 129.056C21.8519 98.7148 12.0689 75.7389 30.7026 53.3025C38.9739 43.3463 49.4362 37.0596 63.3682 31.026C69.635 28.3088 76.3812 25.1521 83.3739 21.6492C111.165 7.71714 146.334 11.0137 169.883 36.1073L169.876 36.094Z" stroke="url(#paint8_linear_15_387)" stroke-width="0.332983" stroke-miterlimit="10"/>
<path d="M170.755 38.791C185.899 56.3658 196.495 72.0161 193.158 95.165C190.341 115.257 191.747 127.478 183.788 151.726C172.647 185.663 152.115 197.031 125.41 191.191C98.3981 185.277 78.2793 198.883 52.5796 185.357C28.2053 172.517 21.3325 150.181 21.2859 130.248C21.2859 129.316 21.2393 128.377 21.3525 127.458C25.0353 96.5902 13.7405 74.5201 33.0202 52.7164C41.2715 43.3862 51.7538 37.3592 65.9256 31.5519C72.159 29.0013 78.8986 25.9512 85.8913 22.5947C113.442 9.37526 147.913 12.2855 170.755 38.7977V38.791Z" stroke="url(#paint9_linear_15_387)" stroke-width="0.332983" stroke-miterlimit="10"/>
<path d="M171.634 41.4882C185.893 59.5026 195.329 74.4802 191.86 96.4704C188.856 115.51 189.629 127.405 182.296 151.14C171.521 186.023 151.136 196.585 124.351 189.193C97.2125 181.707 78.0927 197.031 52.4197 183.506C27.9454 170.606 21.9051 148.189 22.7642 128.61C22.8041 127.684 22.8041 126.765 22.9573 125.866C28.265 94.4858 15.3786 73.3014 35.3376 52.1303C43.5556 43.4128 54.0646 37.6456 68.4828 32.0848C74.6829 29.6939 81.4092 26.7504 88.4085 23.5471C115.72 11.0402 149.518 13.5443 171.634 41.4882Z" stroke="url(#paint10_linear_15_387)" stroke-width="0.332983" stroke-miterlimit="10"/>
<path d="M172.52 44.1921C185.912 62.6328 194.217 76.9643 190.574 97.7825C187.424 115.784 187.55 127.338 180.818 150.567C170.435 186.409 150.176 196.139 123.305 187.208C96.04 178.151 77.9124 195.187 52.2727 181.668C27.7052 168.701 22.4907 146.205 24.2555 126.985C24.3421 126.073 24.3887 125.16 24.5818 124.281C31.5745 92.3948 17.0098 72.0695 37.6681 51.5577C45.8395 43.4463 56.3884 37.9454 71.0596 32.6243C77.2265 30.3867 83.9461 27.5563 90.9387 24.5062C118.01 12.7052 151.169 14.7764 172.52 44.1855V44.1921Z" stroke="url(#paint11_linear_15_387)" stroke-width="0.332983" stroke-miterlimit="10"/>
<path d="M173.399 46.8893C185.946 65.7494 193.098 79.4417 189.282 99.0877C185.986 116.043 185.48 127.278 179.339 149.981C169.383 186.789 149.218 195.686 122.26 185.217C94.875 174.582 77.733 193.342 52.1266 179.823C27.4592 166.797 23.0838 144.22 25.7477 125.353C25.8742 124.454 25.9674 123.555 26.2005 122.69C34.9313 90.3103 18.6085 70.8041 39.9927 50.9716C48.1041 43.4529 58.6997 38.225 73.624 33.157C79.7509 31.0792 86.4638 28.3621 93.4631 25.4651C120.288 14.3635 152.847 15.9884 173.406 46.8893H173.399Z" stroke="url(#paint12_linear_15_387)" stroke-width="0.332983" stroke-miterlimit="10"/>
<path d="M174.278 49.5865C185.999 68.8463 191.979 81.9126 187.99 100.4C184.554 116.31 183.428 127.225 177.854 149.408C168.358 187.189 148.259 195.24 121.207 183.233C93.7027 171.019 77.5463 191.497 51.9732 177.985C27.2126 164.892 23.6697 142.242 27.2326 123.729C27.4057 122.843 27.5456 121.957 27.8186 121.111C38.3476 88.2725 20.1733 69.5256 42.3234 50.4057C50.3616 43.4663 61.0171 38.5182 76.1944 33.7032C82.2814 31.7719 88.9943 29.168 95.9936 26.4309C122.572 16.0285 154.572 17.1939 174.291 49.5932L174.278 49.5865Z" stroke="url(#paint13_linear_15_387)" stroke-width="0.332983" stroke-miterlimit="10"/>
<path d="M175.157 52.2839C186.078 71.9432 190.86 84.3901 186.691 101.705C183.108 116.576 181.39 127.172 176.362 148.822C167.365 187.582 147.286 194.781 120.148 181.235C92.5169 167.443 77.3528 189.646 51.813 176.134C26.9591 162.981 24.262 140.251 28.7106 122.09C28.9237 121.218 29.1169 120.339 29.4232 119.513C41.7969 86.2415 21.6913 68.1871 44.6339 49.8131C52.5855 43.4398 63.3076 38.7714 78.7447 34.2295C84.7916 32.4514 91.4979 29.9607 98.4972 27.3767C124.83 17.6603 156.31 18.3595 175.15 52.2839H175.157Z" stroke="url(#paint14_linear_15_387)" stroke-width="0.332983" stroke-miterlimit="10"/>
<path d="M176.036 54.9806C186.179 75.0395 189.748 86.8671 185.399 103.01C181.677 116.836 179.372 127.118 174.877 148.236C166.419 187.981 146.327 194.327 119.096 179.243C91.3516 163.873 77.1731 187.801 51.66 174.289C26.7062 161.069 24.8615 138.266 30.1959 120.458C30.4556 119.599 30.6953 118.734 31.0416 117.921C45.3066 84.2565 23.1966 66.8082 46.9583 49.2267C54.8233 43.4128 65.6186 39.0241 81.3088 34.7552C87.3158 33.1169 94.0154 30.7528 101.021 28.3286C127.101 19.2981 158.115 19.5246 176.036 54.974V54.9806Z" stroke="url(#paint15_linear_15_387)" stroke-width="0.332983" stroke-miterlimit="10"/>
<path d="M176.915 57.6848C186.292 78.1366 188.629 89.3448 184.107 104.322C180.245 117.102 177.374 127.065 173.399 147.663C165.527 188.401 145.401 193.835 118.05 177.259C90.2128 160.264 76.9933 185.957 51.5135 172.451C26.4665 159.171 25.4675 136.295 31.681 118.834C31.9807 117.988 32.2737 117.142 32.6533 116.343C48.8562 82.3322 24.6683 65.39 49.2825 48.6609C57.0476 43.3865 67.9229 39.2908 83.8794 35.3083C89.8465 33.8165 96.5461 31.5656 103.552 29.3013C129.378 20.9567 159.966 20.7037 176.922 57.6848H176.915Z" stroke="url(#paint16_linear_15_387)" stroke-width="0.332983" stroke-miterlimit="10"/>
<path d="M177.794 60.3819C186.432 81.24 187.517 91.8222 182.815 105.634C178.813 117.375 175.39 127.018 171.914 147.084C164.674 188.814 144.442 193.389 116.998 175.268C89.0407 156.701 76.8069 184.112 51.3603 170.606C26.2134 157.26 26.0735 134.317 33.1661 117.209C33.5124 116.376 33.852 115.544 34.2716 114.758C52.4458 80.4408 26.1135 63.8982 51.6067 48.0815C59.272 43.3265 70.2271 39.5371 86.4434 35.841C92.3772 34.4891 99.0635 32.358 106.069 30.2536C131.649 22.5816 161.844 21.8624 177.801 60.3819H177.794Z" stroke="url(#paint17_linear_15_387)" stroke-width="0.332983" stroke-miterlimit="10"/>
<path d="M178.673 63.079C186.584 84.3366 186.411 94.2995 181.516 106.94C177.374 117.635 173.418 126.958 170.421 146.498C163.875 189.22 143.47 192.936 115.939 173.27C87.8614 153.131 76.6132 182.254 51.2 168.761C25.9598 155.355 26.6724 132.346 34.644 115.577C35.037 114.758 35.4232 113.939 35.8761 113.166C56.0549 78.596 27.5315 62.3265 53.9238 47.502C61.4825 43.2532 72.5309 39.7702 89.0002 36.3737C94.894 35.1617 101.574 33.1505 108.586 31.2125C133.913 24.2132 163.768 23.0278 178.673 63.079Z" stroke="url(#paint18_linear_15_387)" stroke-width="0.332983" stroke-miterlimit="10"/>
<path d="M179.552 65.7761C186.758 87.4467 185.3 96.7769 180.225 108.245C175.95 117.901 171.461 126.899 168.937 145.919C163.136 189.633 142.511 192.49 114.887 171.285C86.6901 149.575 76.4342 180.416 51.0475 166.923C25.7075 153.451 27.2859 130.388 36.1299 113.952C36.5628 113.146 37.0023 112.347 37.4885 111.588C59.6984 76.8112 28.9374 60.6882 56.2421 46.9293C63.7009 43.1732 74.8292 40.0032 91.5583 36.9198C97.4121 35.841 104.085 33.9496 111.104 32.1781C136.178 25.8381 165.727 24.2065 179.546 65.7895L179.552 65.7761Z" stroke="url(#paint19_linear_15_387)" stroke-width="0.332983" stroke-miterlimit="10"/>
<path d="M180.431 68.4798C186.944 90.5766 184.207 99.2741 178.933 109.557C174.537 118.181 169.516 126.838 167.458 145.339C162.47 190.045 141.552 192.05 113.841 169.294C85.5243 146.012 76.2541 178.564 50.9008 165.078C25.4675 151.546 27.9316 128.437 37.6214 112.32C38.1009 111.528 38.5937 110.749 39.1132 109.996C63.3677 75.0529 30.3424 58.9432 58.5727 46.3497C65.9316 43.0665 77.1398 40.2162 94.1286 37.4524C99.9425 36.5068 106.609 34.7419 113.628 33.1303C138.449 27.4496 167.731 25.3851 180.431 68.4798Z" stroke="url(#paint20_linear_15_387)" stroke-width="0.332983" stroke-miterlimit="10"/>
<path d="M96.6931 37.9854C122.679 34.3226 166.473 13.8241 181.311 71.1771C191.986 112.44 169.53 105.128 165.967 144.76C161.858 190.452 140.587 191.604 112.783 167.303C84.3461 142.449 76.0615 176.719 50.7414 163.234C23.9496 148.962 28.9044 124.148 40.7186 108.405C73.5974 64.5974 10.2906 50.1659 96.6864 37.9854H96.6931Z" stroke="url(#paint21_linear_15_387)" stroke-width="0.332983" stroke-miterlimit="10"/>
<defs>
<linearGradient id="paint0_linear_15_387" x1="54.9366" y1="202.627" x2="155.245" y2="10.3468" gradientUnits="userSpaceOnUse">
<stop stop-color="#A4E9FD"/>
<stop offset="0.42" stop-color="#75AEE2"/>
<stop offset="1" stop-color="#3158BC"/>
</linearGradient>
<linearGradient id="paint1_linear_15_387" x1="55.7483" y1="201.286" x2="154.455" y2="12.0757" gradientUnits="userSpaceOnUse">
<stop stop-color="#9FE2FB"/>
<stop offset="0.49" stop-color="#6BA1DE"/>
<stop offset="1" stop-color="#345CBF"/>
</linearGradient>
<linearGradient id="paint2_linear_15_387" x1="56.5556" y1="199.941" x2="153.728" y2="13.6718" gradientUnits="userSpaceOnUse">
<stop stop-color="#99DBF9"/>
<stop offset="0.59" stop-color="#6093D9"/>
<stop offset="1" stop-color="#3760C2"/>
</linearGradient>
<linearGradient id="paint3_linear_15_387" x1="57.3645" y1="198.606" x2="153.068" y2="15.1528" gradientUnits="userSpaceOnUse">
<stop stop-color="#94D4F7"/>
<stop offset="0.73" stop-color="#5383D2"/>
<stop offset="1" stop-color="#3A64C5"/>
</linearGradient>
<linearGradient id="paint4_linear_15_387" x1="58.1712" y1="197.261" x2="152.457" y2="16.5242" gradientUnits="userSpaceOnUse">
<stop stop-color="#8ECDF5"/>
<stop offset="0.93" stop-color="#446FCB"/>
<stop offset="1" stop-color="#3E68C8"/>
</linearGradient>
<linearGradient id="paint5_linear_15_387" x1="58.9833" y1="195.92" x2="151.899" y2="17.8103" gradientUnits="userSpaceOnUse">
<stop stop-color="#89C6F3"/>
<stop offset="1" stop-color="#416CCB"/>
</linearGradient>
<linearGradient id="paint6_linear_15_387" x1="59.7961" y1="194.578" x2="151.387" y2="19.0079" gradientUnits="userSpaceOnUse">
<stop stop-color="#83BFF1"/>
<stop offset="1" stop-color="#4470CE"/>
</linearGradient>
<linearGradient id="paint7_linear_15_387" x1="60.6053" y1="193.243" x2="150.918" y2="20.123" gradientUnits="userSpaceOnUse">
<stop stop-color="#7EB8EF"/>
<stop offset="1" stop-color="#4774D1"/>
</linearGradient>
<linearGradient id="paint8_linear_15_387" x1="61.4242" y1="191.905" x2="150.493" y2="21.1701" gradientUnits="userSpaceOnUse">
<stop stop-color="#78B1ED"/>
<stop offset="1" stop-color="#4A78D4"/>
</linearGradient>
<linearGradient id="paint9_linear_15_387" x1="62.2426" y1="190.566" x2="150.1" y2="22.1521" gradientUnits="userSpaceOnUse">
<stop stop-color="#73AAEB"/>
<stop offset="1" stop-color="#4D7CD7"/>
</linearGradient>
<linearGradient id="paint10_linear_15_387" x1="63.0607" y1="189.228" x2="149.742" y2="23.0694" gradientUnits="userSpaceOnUse">
<stop stop-color="#6DA3E9"/>
<stop offset="1" stop-color="#5080DA"/>
</linearGradient>
<linearGradient id="paint11_linear_15_387" x1="63.8815" y1="187.899" x2="149.423" y2="23.9249" gradientUnits="userSpaceOnUse">
<stop stop-color="#689DE7"/>
<stop offset="1" stop-color="#5485DE"/>
</linearGradient>
<linearGradient id="paint12_linear_15_387" x1="64.712" y1="186.567" x2="149.135" y2="24.7361" gradientUnits="userSpaceOnUse">
<stop stop-color="#6296E5"/>
<stop offset="1" stop-color="#5789E1"/>
</linearGradient>
<linearGradient id="paint13_linear_15_387" x1="65.5419" y1="185.235" x2="148.872" y2="25.5002" gradientUnits="userSpaceOnUse">
<stop stop-color="#5D8FE3"/>
<stop offset="1" stop-color="#5A8DE4"/>
</linearGradient>
<linearGradient id="paint14_linear_15_387" x1="66.3776" y1="183.906" x2="148.639" y2="26.2202" gradientUnits="userSpaceOnUse">
<stop stop-color="#5788E1"/>
<stop offset="1" stop-color="#5D91E7"/>
</linearGradient>
<linearGradient id="paint15_linear_15_387" x1="67.2107" y1="182.582" x2="148.431" y2="26.8923" gradientUnits="userSpaceOnUse">
<stop stop-color="#5281DF"/>
<stop offset="1" stop-color="#6095EA"/>
</linearGradient>
<linearGradient id="paint16_linear_15_387" x1="68.0526" y1="181.257" x2="148.244" y2="27.5388" gradientUnits="userSpaceOnUse">
<stop stop-color="#4C7ADD"/>
<stop offset="1" stop-color="#6399ED"/>
</linearGradient>
<linearGradient id="paint17_linear_15_387" x1="68.8946" y1="179.931" x2="148.075" y2="28.1495" gradientUnits="userSpaceOnUse">
<stop stop-color="#4773DB"/>
<stop offset="1" stop-color="#669DF0"/>
</linearGradient>
<linearGradient id="paint18_linear_15_387" x1="69.7389" y1="178.614" x2="147.931" y2="28.7278" gradientUnits="userSpaceOnUse">
<stop stop-color="#416CD9"/>
<stop offset="1" stop-color="#6AA1F3"/>
</linearGradient>
<linearGradient id="paint19_linear_15_387" x1="70.5934" y1="177.294" x2="147.803" y2="29.2916" gradientUnits="userSpaceOnUse">
<stop stop-color="#3C65D7"/>
<stop offset="1" stop-color="#6DA5F6"/>
</linearGradient>
<linearGradient id="paint20_linear_15_387" x1="71.4528" y1="175.977" x2="147.695" y2="29.8287" gradientUnits="userSpaceOnUse">
<stop stop-color="#365ED5"/>
<stop offset="0.14" stop-color="#3E69DA"/>
<stop offset="1" stop-color="#70A9F9"/>
</linearGradient>
<linearGradient id="paint21_linear_15_387" x1="72.3129" y1="174.661" x2="147.6" y2="30.3425" gradientUnits="userSpaceOnUse">
<stop stop-color="#3157D3"/>
<stop offset="0.32" stop-color="#4673E0"/>
<stop offset="1" stop-color="#73ADFC"/>
</linearGradient>
</defs>
</svg>
