<svg width="254" height="257" viewBox="0 0 254 257" fill="none" xmlns="http://www.w3.org/2000/svg">
<path d="M253.316 126.94C253.316 159.539 185.228 154.87 165.309 177.6C141.627 204.618 162.878 256.13 124.132 256.13C88.4561 256.13 57.6019 240.394 35.6716 215.74C13.7347 191.085 0.72168 157.507 0.72168 121.838C0.72168 89.5589 16.4518 67.9216 36.6173 45.9381C61.0316 19.3261 87.7302 0.698975 126.802 0.698975C158.642 0.698975 177.096 16.8886 202.996 31.0737C240.989 51.8785 253.323 87.4477 253.323 126.953L253.316 126.94Z" stroke="url(#paint0_linear_15_364)" stroke-width="0.332983" stroke-miterlimit="10"/>
<path d="M38.1496 45.845C60.8124 23.3153 85.0469 6.02016 117.899 2.92342C121.449 2.59044 125.098 2.42394 128.848 2.43726C160.135 2.51718 178.242 18.9599 203.729 34.1373C239.884 55.6746 253.297 90.5246 252.491 129.97C252.244 141.957 242.914 148.99 230.121 154.284C208.57 163.288 177.67 166.225 164.936 179.484C144.991 200.243 154.847 237.27 136.832 249.83C133.15 252.394 128.321 253.866 121.855 253.959C85.8594 254.486 55.538 239.135 35.1794 213.702C14.7275 188.149 2.35388 156.002 2.3672 120.367C2.38052 87.8674 17.498 66.4566 38.1562 45.845H38.1496Z" stroke="url(#paint1_linear_15_364)" stroke-width="0.332983" stroke-miterlimit="10"/>
<path d="M39.6942 45.7715C62.9631 24.7669 87.504 7.69823 119.97 4.66142C123.526 4.32844 127.169 4.1686 130.905 4.19524C161.639 4.35507 179.374 21.0042 204.468 37.2272C238.792 59.4105 253.283 93.6212 251.658 133.013C251.172 144.794 242.021 151.84 229.428 157.321C207.997 166.651 177.583 169.089 164.563 181.382C144.351 200.462 152.735 235.226 134.461 247.633C130.732 250.163 125.93 251.615 119.577 251.802C83.2551 252.86 53.4664 237.876 34.6862 211.677C15.7195 185.218 3.98513 154.511 4.01176 118.908C4.0384 86.1824 18.5365 64.998 39.6876 45.7649L39.6942 45.7715Z" stroke="url(#paint2_linear_15_364)" stroke-width="0.332983" stroke-miterlimit="10"/>
<path d="M41.2325 45.6915C65.0541 26.1453 89.9479 9.36965 122.034 6.39278C125.597 6.06646 129.233 5.91329 132.956 5.95324C163.131 6.19299 180.479 23.0153 205.207 40.3171C237.713 63.0599 253.276 96.7178 250.832 136.05C250.113 147.618 241.142 154.703 228.742 160.351C207.444 170.041 177.516 171.939 164.19 183.28C143.738 200.682 150.631 233.174 132.097 245.435C128.328 247.932 123.539 249.371 117.306 249.644C80.6577 251.249 51.4085 236.611 34.1999 209.652C16.7249 182.274 5.61661 153.019 5.66323 117.456C5.70985 84.5106 19.542 63.4927 41.2325 45.6981V45.6915Z" stroke="url(#paint3_linear_15_364)" stroke-width="0.332983" stroke-miterlimit="10"/>
<path d="M42.7716 45.6118C67.1859 27.5641 92.3994 11.0348 124.099 8.13119C127.669 7.80486 131.298 7.65835 135.008 7.71163C164.63 8.03129 181.579 24.9801 205.947 43.4074C236.654 66.6297 253.29 99.8081 250 139.093C249.048 150.448 240.264 157.581 228.05 163.381C206.886 173.437 177.463 174.789 163.818 185.172C143.159 200.895 148.52 231.123 129.727 243.231C125.911 245.695 121.142 247.12 115.029 247.48C78.0478 249.644 49.3446 235.319 33.7078 207.621C17.7179 179.311 7.24891 151.52 7.30885 115.991C7.36879 82.826 20.5749 62.0145 42.7716 45.6118Z" stroke="url(#paint4_linear_15_364)" stroke-width="0.332983" stroke-miterlimit="10"/>
<path d="M44.3157 45.5319C69.3294 28.9826 94.8559 12.7064 126.17 9.86271C129.746 9.54304 133.375 9.40985 137.065 9.46979C166.134 9.93596 182.67 26.8981 206.685 46.4975C235.628 70.1127 253.316 102.892 249.174 142.137C248.002 153.279 239.384 160.458 227.363 166.418C206.339 176.84 177.436 177.64 163.45 187.076C142.619 201.128 146.415 229.079 127.368 241.04C123.506 243.47 118.757 244.889 112.764 245.328C75.4497 248.059 47.3059 234.034 33.2274 205.604C18.736 176.348 8.89297 150.035 8.96623 114.546C9.03948 81.1544 21.6262 60.5561 44.3157 45.5452V45.5319Z" stroke="url(#paint5_linear_15_364)" stroke-width="0.332983" stroke-miterlimit="10"/>
<path d="M45.8541 45.452C71.4671 30.4078 97.3 14.378 128.234 11.5943C131.817 11.2746 135.44 11.1481 139.116 11.2214C167.633 11.7741 183.762 28.7629 207.424 49.5744C234.629 73.5025 253.349 105.955 248.348 145.16C246.949 156.089 238.511 163.315 226.677 169.428C205.793 180.224 177.436 180.47 163.084 188.948C142.113 201.341 144.311 227.008 125.011 238.815C121.102 241.213 116.373 242.631 110.499 243.144C72.8457 246.461 45.2747 232.702 32.7412 203.552C19.7549 173.344 10.5312 148.517 10.6178 113.061C10.7044 79.4496 22.6784 59.0577 45.8607 45.4454L45.8541 45.452Z" stroke="url(#paint6_linear_15_364)" stroke-width="0.332983" stroke-miterlimit="10"/>
<path d="M47.3999 45.3721C73.619 31.833 99.7582 16.0496 130.306 13.3258C133.896 13.0128 137.512 12.8929 141.175 12.9795C169.139 13.6188 184.869 30.5876 208.171 52.6644C233.671 76.8324 253.41 109.038 247.523 148.204C245.911 158.913 237.633 166.192 225.992 172.465C205.241 183.64 177.457 183.334 162.712 190.852C141.634 201.601 142.207 224.963 122.641 236.624C118.685 238.989 113.983 240.4 108.223 240.993C70.2293 244.909 43.2377 231.397 32.2492 201.535C20.7813 170.367 12.1637 147.032 12.2636 111.609C12.3701 77.7714 23.7182 57.5992 47.3999 45.3721Z" stroke="url(#paint7_linear_15_364)" stroke-width="0.332983" stroke-miterlimit="10"/>
<path d="M48.9374 45.292C75.7692 33.258 102.208 17.721 132.37 15.0572C135.959 14.7442 139.575 14.631 143.225 14.7308C170.629 15.4568 185.993 32.359 208.909 55.7477C232.751 80.0821 253.482 112.108 246.696 151.241C244.878 161.736 236.76 169.069 225.299 175.488C204.687 187.043 177.489 186.197 162.338 192.737C141.187 201.874 140.095 222.905 120.276 234.413C116.273 236.744 111.592 238.163 105.951 238.829C67.6178 243.35 41.2189 230.071 31.7622 199.51C21.8193 167.37 13.8011 145.54 13.9143 110.157C14.0341 76.0997 24.7762 56.1406 48.9374 45.2987V45.292Z" stroke="url(#paint8_linear_15_364)" stroke-width="0.332983" stroke-miterlimit="10"/>
<path d="M50.4768 45.2187C77.9146 34.6964 104.653 19.3992 134.442 16.7952C138.038 16.4889 141.654 16.3823 145.284 16.4889C172.136 17.3014 187.146 34.0904 209.649 58.8377C231.879 83.2787 253.57 115.185 245.865 154.277C243.84 164.56 235.882 171.945 224.607 178.519C204.135 190.453 177.543 189.087 161.966 194.635C140.769 202.187 137.985 220.854 117.906 232.215C113.857 234.513 109.195 235.931 103.674 236.671C65.0015 241.825 39.2087 228.752 31.2703 197.485C22.8658 164.373 15.4337 144.048 15.5602 108.699C15.6934 74.4213 25.8227 54.6754 50.4768 45.2187Z" stroke="url(#paint9_linear_15_364)" stroke-width="0.332983" stroke-miterlimit="10"/>
<path d="M52.0217 45.1391C80.0722 36.1352 107.11 21.071 136.513 18.527C140.116 18.2207 143.725 18.1208 147.341 18.2473C173.64 19.1397 188.338 35.7689 210.395 61.9281C231.053 86.4223 253.676 118.262 245.045 157.321C242.821 167.39 235.016 174.836 223.928 181.556C203.602 193.876 177.623 192.005 161.606 196.533C140.389 202.534 135.894 218.81 115.555 230.018C111.459 232.282 106.817 233.707 101.416 234.513C62.4041 240.314 37.2306 227.421 30.7974 195.461C23.9379 161.37 17.0784 142.557 17.225 107.24C17.3715 72.7367 26.8948 53.2172 52.035 45.1457L52.0217 45.1391Z" stroke="url(#paint10_linear_15_364)" stroke-width="0.332983" stroke-miterlimit="10"/>
<path d="M53.5594 45.059C82.2226 37.5736 109.561 22.7425 138.577 20.2585C142.186 19.9588 145.789 19.8655 149.392 19.9987C175.138 20.971 189.57 37.4004 211.134 65.0047C230.274 89.5123 253.795 121.332 244.212 160.351C241.795 170.207 234.136 177.706 223.234 184.572C203.056 197.279 177.702 194.935 161.226 198.418C139.995 202.906 133.775 216.745 113.183 227.807C109.041 230.038 104.419 231.476 99.1381 232.342C59.7928 238.802 35.2386 226.082 30.3038 193.423C25.0094 158.353 18.7094 141.051 18.8692 105.775C19.0357 71.0517 27.9463 51.752 53.566 45.059H53.5594Z" stroke="url(#paint11_linear_15_364)" stroke-width="0.332983" stroke-miterlimit="10"/>
<path d="M55.1042 44.9792C84.3868 39.0121 112.011 24.4141 140.648 21.99C144.264 21.6903 147.867 21.6037 151.45 21.7569C176.636 22.8091 190.868 38.9921 211.879 68.0948C229.547 92.5691 253.942 124.422 243.393 163.388C240.782 173.031 233.27 180.59 222.555 187.603C202.523 200.702 177.795 197.905 160.866 200.316C139.635 203.333 131.677 214.701 110.826 225.609C106.637 227.807 102.035 229.252 96.8737 230.184C57.1954 237.324 33.2672 224.757 29.8242 191.399C26.1014 155.35 20.3541 139.56 20.5273 104.317C20.7071 69.3735 29.0117 50.3002 55.1176 44.9792H55.1042Z" stroke="url(#paint12_linear_15_364)" stroke-width="0.332983" stroke-miterlimit="10"/>
<path d="M56.6433 44.8991C86.5385 40.4638 114.462 26.0855 142.713 23.7214C146.336 23.4217 149.932 23.3484 153.501 23.5083C178.136 24.6337 192.227 40.537 212.613 71.1781C228.862 95.5924 254.096 127.506 242.554 166.425C239.757 175.855 232.392 183.48 221.856 190.626C201.97 204.125 177.876 200.902 160.487 202.2C139.25 203.785 129.567 212.636 108.455 223.398C104.22 225.562 99.6447 227.028 94.5967 228.013C54.5854 235.852 31.2966 223.418 29.332 189.361C27.1942 152.333 21.9864 138.054 22.1728 102.851C22.366 67.6818 30.0645 48.8416 56.6499 44.8991H56.6433Z" stroke="url(#paint13_linear_15_364)" stroke-width="0.332983" stroke-miterlimit="10"/>
<path d="M58.1822 44.8195C88.6902 41.9092 116.914 27.7574 144.778 25.4599C148.407 25.1668 151.997 25.0936 155.553 25.2734C179.635 26.4721 193.66 42.0624 213.352 74.2752C228.23 98.6096 254.276 130.616 241.729 169.475C238.752 178.699 231.52 186.377 221.164 193.67C201.432 207.568 177.95 203.952 160.108 204.112C138.857 204.298 127.449 210.599 106.079 221.207C101.796 223.338 97.2412 224.817 92.3064 225.862C51.9754 234.42 29.3259 222.1 28.8264 187.343C28.2803 149.343 23.6053 136.57 23.805 101.4C24.0115 66.0106 31.104 47.4035 58.1756 44.8262L58.1822 44.8195Z" stroke="url(#paint14_linear_15_364)" stroke-width="0.332983" stroke-miterlimit="10"/>
<path d="M59.7263 44.7395C90.8469 43.3676 119.364 29.4222 146.848 27.1913C150.484 26.8982 154.067 26.8316 157.61 27.0248C181.139 28.2968 195.184 43.5407 214.097 77.3585C227.656 101.606 254.482 133.719 240.902 172.505C237.746 181.522 230.653 189.261 220.477 196.693C200.898 210.991 178.022 207.009 159.741 205.997C138.457 204.818 125.344 208.541 103.72 218.996C99.398 221.094 94.8627 222.592 90.0411 223.691C49.3905 232.995 27.3803 220.768 28.346 185.305C29.4049 146.333 25.2493 135.064 25.4557 99.9281C25.6821 64.3122 32.162 45.9515 59.7197 44.7328L59.7263 44.7395Z" stroke="url(#paint15_linear_15_364)" stroke-width="0.332983" stroke-miterlimit="10"/>
<path d="M61.2647 44.6594C92.998 44.8259 121.814 31.0937 148.913 28.9226C152.555 28.6363 156.138 28.5697 159.661 28.7761C182.637 30.1214 196.796 44.9924 214.83 80.4351C227.117 104.583 254.695 136.823 240.07 175.535C236.74 184.346 229.781 192.144 219.785 199.71C200.365 214.414 178.069 210.092 159.368 207.881C138.037 205.357 123.233 206.476 101.356 216.785C96.9871 218.85 92.4719 220.368 87.7702 221.527C46.8132 231.596 25.4424 219.442 27.8598 183.274C30.5303 143.336 26.8875 133.566 27.1073 98.4695C27.347 62.6339 33.2208 44.5129 61.258 44.6594H61.2647Z" stroke="url(#paint16_linear_15_364)" stroke-width="0.332983" stroke-miterlimit="10"/>
<path d="M62.8037 44.5861C95.143 46.291 124.266 32.7719 150.978 30.6608C154.627 30.3744 158.203 30.3211 161.713 30.5409C184.136 31.9528 198.514 46.4375 215.57 83.5319C226.631 107.593 254.935 139.966 239.238 178.585C235.742 187.196 228.916 195.048 219.093 202.753C199.833 217.864 178.096 213.222 158.996 209.786C137.585 205.936 121.129 204.438 98.9856 214.594C94.5703 216.625 90.0816 218.164 85.4931 219.376C44.2299 230.231 23.4983 218.144 27.3676 181.262C31.6564 140.365 28.5131 132.087 28.7528 97.0243C29.0059 60.9689 34.267 43.0877 62.797 44.5928L62.8037 44.5861Z" stroke="url(#paint17_linear_15_364)" stroke-width="0.332983" stroke-miterlimit="10"/>
<path d="M64.3486 44.5062C97.2939 47.7561 126.716 34.4434 153.049 32.3923C156.705 32.1126 160.274 32.0593 163.771 32.2924C185.634 33.7708 200.346 47.856 216.315 86.6152C226.198 110.597 255.201 143.109 238.419 181.615C234.756 190.027 228.056 197.932 218.413 205.77C199.313 221.294 178.116 216.339 158.629 211.67C137.119 206.509 119.024 202.374 96.628 212.383C92.166 214.381 87.704 215.946 83.2287 217.205C41.6791 228.872 21.5802 216.825 26.888 179.225C32.7951 137.375 30.1579 130.582 30.4109 95.5592C30.6773 59.2773 35.3258 41.6492 64.3486 44.5062Z" stroke="url(#paint18_linear_15_364)" stroke-width="0.332983" stroke-miterlimit="10"/>
<path d="M65.8872 44.4263C99.4319 49.2745 129.167 36.115 155.113 34.1238C158.776 33.8441 162.346 33.7908 165.822 34.0505C187.14 35.5622 202.277 49.2745 217.055 89.7053C225.799 113.627 255.481 146.272 237.593 184.659C233.764 192.87 227.198 200.828 217.727 208.807C198.801 224.743 178.103 219.496 158.263 213.568C136.619 207.109 116.92 200.329 94.264 210.185C89.7554 212.15 85.3201 213.742 80.958 215.047C39.1286 227.554 19.6491 215.526 26.402 177.2C33.9408 134.398 31.7963 129.091 32.0627 94.1007C32.3491 57.5991 36.3715 40.2573 65.8872 44.4329V44.4263Z" stroke="url(#paint19_linear_15_364)" stroke-width="0.332983" stroke-miterlimit="10"/>
<path d="M67.4318 44.3465C101.583 50.7131 131.624 37.7867 157.184 35.8554C160.847 35.5824 164.417 35.5291 167.88 35.8022C188.644 37.3938 204.335 50.6998 217.794 92.7889C225.439 116.684 255.78 149.449 236.76 187.696C232.771 195.721 226.345 203.739 217.028 211.837C198.294 228.22 178.062 222.652 157.883 215.467C136.086 207.708 114.809 198.278 91.8928 207.988C87.3376 209.919 82.9355 211.537 78.68 212.889C36.5843 226.262 17.7907 214.248 25.9088 175.176C35.1524 131.448 33.4276 127.599 33.7073 92.6424C34.007 55.9143 37.4167 38.8057 67.4252 44.3532L67.4318 44.3465Z" stroke="url(#paint20_linear_15_364)" stroke-width="0.332983" stroke-miterlimit="10"/>
<path d="M218.533 95.8723C226.465 124.689 269.872 166.545 216.342 214.861C177.829 249.617 134.308 187.303 89.5286 205.777C37.9095 227.074 14.8538 216.825 25.4226 173.138C36.2246 128.458 35.0658 126.094 35.3589 91.1772C35.6719 54.2294 38.4623 37.3472 68.9702 44.2666C103.72 52.1516 134.068 39.4583 159.249 37.5869C184.429 35.7156 204.441 44.6728 218.533 95.8723Z" stroke="url(#paint21_linear_15_364)" stroke-width="0.332983" stroke-miterlimit="10"/>
<defs>
<linearGradient id="paint0_linear_15_364" x1="0.548528" y1="128.405" x2="253.483" y2="128.405" gradientUnits="userSpaceOnUse">
<stop stop-color="#A4E9FD"/>
<stop offset="0.42" stop-color="#75AEE2"/>
<stop offset="1" stop-color="#3158BC"/>
</linearGradient>
<linearGradient id="paint1_linear_15_364" x1="2.19405" y1="128.212" x2="252.684" y2="128.212" gradientUnits="userSpaceOnUse">
<stop stop-color="#9FE2FB"/>
<stop offset="0.49" stop-color="#6BA1DE"/>
<stop offset="1" stop-color="#345CBF"/>
</linearGradient>
<linearGradient id="paint2_linear_15_364" x1="3.84527" y1="128.025" x2="251.944" y2="128.025" gradientUnits="userSpaceOnUse">
<stop stop-color="#99DBF9"/>
<stop offset="0.59" stop-color="#6093D9"/>
<stop offset="1" stop-color="#3760C2"/>
</linearGradient>
<linearGradient id="paint3_linear_15_364" x1="5.49674" y1="127.852" x2="251.245" y2="127.852" gradientUnits="userSpaceOnUse">
<stop stop-color="#94D4F7"/>
<stop offset="0.73" stop-color="#5383D2"/>
<stop offset="1" stop-color="#3A64C5"/>
</linearGradient>
<linearGradient id="paint4_linear_15_364" x1="7.14902" y1="127.692" x2="250.58" y2="127.692" gradientUnits="userSpaceOnUse">
<stop stop-color="#8ECDF5"/>
<stop offset="0.93" stop-color="#446FCB"/>
<stop offset="1" stop-color="#3E68C8"/>
</linearGradient>
<linearGradient id="paint5_linear_15_364" x1="8.79308" y1="127.552" x2="249.94" y2="127.552" gradientUnits="userSpaceOnUse">
<stop stop-color="#89C6F3"/>
<stop offset="1" stop-color="#416CCB"/>
</linearGradient>
<linearGradient id="paint6_linear_15_364" x1="10.4446" y1="127.419" x2="249.327" y2="127.419" gradientUnits="userSpaceOnUse">
<stop stop-color="#83BFF1"/>
<stop offset="1" stop-color="#4470CE"/>
</linearGradient>
<linearGradient id="paint7_linear_15_364" x1="12.0971" y1="127.299" x2="248.735" y2="127.299" gradientUnits="userSpaceOnUse">
<stop stop-color="#7EB8EF"/>
<stop offset="1" stop-color="#4774D1"/>
</linearGradient>
<linearGradient id="paint8_linear_15_364" x1="13.7478" y1="127.193" x2="248.168" y2="127.193" gradientUnits="userSpaceOnUse">
<stop stop-color="#78B1ED"/>
<stop offset="1" stop-color="#4A78D4"/>
</linearGradient>
<linearGradient id="paint9_linear_15_364" x1="15.3937" y1="127.099" x2="247.616" y2="127.099" gradientUnits="userSpaceOnUse">
<stop stop-color="#73AAEB"/>
<stop offset="1" stop-color="#4D7CD7"/>
</linearGradient>
<linearGradient id="paint10_linear_15_364" x1="17.0452" y1="127.02" x2="247.09" y2="127.02" gradientUnits="userSpaceOnUse">
<stop stop-color="#6DA3E9"/>
<stop offset="1" stop-color="#5080DA"/>
</linearGradient>
<linearGradient id="paint11_linear_15_364" x1="18.696" y1="126.953" x2="246.59" y2="126.953" gradientUnits="userSpaceOnUse">
<stop stop-color="#689DE7"/>
<stop offset="1" stop-color="#5485DE"/>
</linearGradient>
<linearGradient id="paint12_linear_15_364" x1="20.3408" y1="126.9" x2="246.103" y2="126.9" gradientUnits="userSpaceOnUse">
<stop stop-color="#6296E5"/>
<stop offset="1" stop-color="#5789E1"/>
</linearGradient>
<linearGradient id="paint13_linear_15_364" x1="21.993" y1="126.853" x2="245.651" y2="126.853" gradientUnits="userSpaceOnUse">
<stop stop-color="#5D8FE3"/>
<stop offset="1" stop-color="#5A8DE4"/>
</linearGradient>
<linearGradient id="paint14_linear_15_364" x1="23.6386" y1="126.827" x2="245.212" y2="126.827" gradientUnits="userSpaceOnUse">
<stop stop-color="#5788E1"/>
<stop offset="1" stop-color="#5D91E7"/>
</linearGradient>
<linearGradient id="paint15_linear_15_364" x1="25.2892" y1="126.807" x2="244.798" y2="126.807" gradientUnits="userSpaceOnUse">
<stop stop-color="#5281DF"/>
<stop offset="1" stop-color="#6095EA"/>
</linearGradient>
<linearGradient id="paint16_linear_15_364" x1="26.9341" y1="126.793" x2="244.412" y2="126.793" gradientUnits="userSpaceOnUse">
<stop stop-color="#4C7ADD"/>
<stop offset="1" stop-color="#6399ED"/>
</linearGradient>
<linearGradient id="paint17_linear_15_364" x1="26.7483" y1="126.8" x2="244.046" y2="126.8" gradientUnits="userSpaceOnUse">
<stop stop-color="#4773DB"/>
<stop offset="1" stop-color="#669DF0"/>
</linearGradient>
<linearGradient id="paint18_linear_15_364" x1="25.8824" y1="126.813" x2="243.707" y2="126.813" gradientUnits="userSpaceOnUse">
<stop stop-color="#416CD9"/>
<stop offset="1" stop-color="#6AA1F3"/>
</linearGradient>
<linearGradient id="paint19_linear_15_364" x1="24.9236" y1="126.84" x2="243.387" y2="126.84" gradientUnits="userSpaceOnUse">
<stop stop-color="#3C65D7"/>
<stop offset="1" stop-color="#6DA5F6"/>
</linearGradient>
<linearGradient id="paint20_linear_15_364" x1="23.8976" y1="129.057" x2="243.094" y2="129.057" gradientUnits="userSpaceOnUse">
<stop stop-color="#365ED5"/>
<stop offset="0.14" stop-color="#3E69DA"/>
<stop offset="1" stop-color="#70A9F9"/>
</linearGradient>
<linearGradient id="paint21_linear_15_364" x1="22.7455" y1="131.482" x2="242.827" y2="131.482" gradientUnits="userSpaceOnUse">
<stop stop-color="#3157D3"/>
<stop offset="0.32" stop-color="#4673E0"/>
<stop offset="1" stop-color="#73ADFC"/>
</linearGradient>
</defs>
</svg>
