<svg width="248" height="240" viewBox="0 0 248 240" fill="none" xmlns="http://www.w3.org/2000/svg">
<path style="mix-blend-mode:color-dodge" d="M211.418 70.598C206.649 70.2517 203.06 66.096 203.413 61.3277C203.759 56.5594 207.915 52.9698 212.683 53.3228C217.451 53.6691 221.041 57.8247 220.688 62.593C220.341 67.3614 216.186 70.9509 211.418 70.598Z" fill="url(#paint0_radial_15_444)"/>
<path style="mix-blend-mode:color-dodge" d="M213.455 164.073C211.491 163.926 210.019 162.222 210.159 160.257C210.305 158.292 212.01 156.821 213.975 156.96C215.939 157.107 217.411 158.812 217.271 160.776C217.125 162.741 215.42 164.213 213.455 164.073Z" fill="url(#paint1_radial_15_444)"/>
<path style="mix-blend-mode:color-dodge" d="M202.653 143.215C200.689 143.068 199.217 141.364 199.357 139.399C199.503 137.434 201.208 135.963 203.173 136.102C205.137 136.249 206.609 137.954 206.469 139.918C206.323 141.883 204.618 143.355 202.653 143.215Z" fill="url(#paint2_radial_15_444)"/>
<path style="mix-blend-mode:color-dodge" d="M189.62 87.973C187.656 87.8265 186.184 86.1216 186.324 84.157C186.47 82.1924 188.175 80.7207 190.14 80.8605C192.104 81.007 193.576 82.7119 193.436 84.6765C193.29 86.6411 191.585 88.1129 189.62 87.973Z" fill="url(#paint3_radial_15_444)"/>
<path style="mix-blend-mode:color-dodge" d="M109.871 17.6605C107.907 17.514 106.435 15.8091 106.575 13.8445C106.721 11.8799 108.426 10.4082 110.391 10.548C112.355 10.6945 113.827 12.3994 113.687 14.364C113.541 16.3286 111.836 17.8004 109.871 17.6605Z" fill="url(#paint4_radial_15_444)"/>
<path style="mix-blend-mode:color-dodge" d="M209.893 19.5985C207.928 19.452 206.456 17.7471 206.596 15.7825C206.743 13.8179 208.448 12.3461 210.412 12.486C212.377 12.6325 213.848 14.3374 213.709 16.302C213.562 18.2666 211.857 19.7384 209.893 19.5985Z" fill="url(#paint5_radial_15_444)"/>
<path style="mix-blend-mode:color-dodge" d="M172.352 239.6C170.387 239.454 168.915 237.749 169.055 235.784C169.202 233.82 170.906 232.348 172.871 232.488C174.836 232.634 176.307 234.339 176.168 236.304C176.021 238.268 174.316 239.74 172.352 239.6Z" fill="url(#paint6_radial_15_444)"/>
<path style="mix-blend-mode:color-dodge" d="M8.55085 68.1671C6.58625 68.0206 5.11446 66.3157 5.25431 64.3511C5.40083 62.3865 7.1057 60.9148 9.0703 61.0546C11.0349 61.2011 12.5067 62.906 12.3668 64.8706C12.227 66.8352 10.5155 68.307 8.55085 68.1671Z" fill="url(#paint7_radial_15_444)"/>
<path style="mix-blend-mode:color-dodge" d="M69.5665 184.871C67.6019 184.725 66.1301 183.02 66.2699 181.055C66.4165 179.091 68.1213 177.619 70.0859 177.759C72.0505 177.905 73.5223 179.61 73.3825 181.575C73.2359 183.539 71.5311 185.011 69.5665 184.871Z" fill="url(#paint8_radial_15_444)"/>
<path style="mix-blend-mode:color-dodge" d="M57.0059 68.1671C55.0413 68.0206 53.5695 66.3157 53.7094 64.3511C53.8559 62.3865 55.5608 60.9148 57.5254 61.0546C59.49 61.2011 60.9618 62.906 60.8219 64.8706C60.6821 66.8352 58.9705 68.307 57.0059 68.1671Z" fill="url(#paint9_radial_15_444)"/>
<path style="mix-blend-mode:color-dodge" d="M33.4981 190.932C31.5335 190.785 30.0617 189.08 30.2016 187.116C30.3481 185.151 32.053 183.679 34.0176 183.819C35.9822 183.966 37.4539 185.67 37.3141 187.635C37.1676 189.6 35.4627 191.071 33.4981 190.932Z" fill="url(#paint10_radial_15_444)"/>
<path style="mix-blend-mode:color-dodge" d="M117.809 226.008C120.694 222.19 119.938 216.757 116.121 213.872C112.303 210.986 106.87 211.742 103.985 215.56C101.1 219.377 101.855 224.811 105.673 227.696C109.491 230.581 114.924 229.825 117.809 226.008Z" fill="url(#paint11_radial_15_444)"/>
<path style="mix-blend-mode:color-dodge" d="M243.182 143.979C245.559 139.826 244.12 134.533 239.967 132.155C235.815 129.778 230.521 131.217 228.143 135.37C225.766 139.523 227.205 144.816 231.358 147.194C235.511 149.571 240.805 148.132 243.182 143.979Z" fill="url(#paint12_radial_15_444)"/>
<path style="mix-blend-mode:color-dodge" d="M138.243 20.4449C142.871 19.229 145.637 14.4916 144.421 9.86349C143.205 5.23543 138.468 2.4693 133.84 3.68518C129.212 4.90106 126.446 9.63851 127.662 14.2666C128.877 18.8946 133.615 21.6608 138.243 20.4449Z" fill="url(#paint13_radial_15_444)"/>
<path style="mix-blend-mode:color-dodge" d="M74.468 15.7274C76.497 11.3938 74.6289 6.23577 70.2953 4.20668C65.9616 2.17759 60.8037 4.04578 58.7746 8.37939C56.7455 12.713 58.6137 17.871 62.9473 19.9001C67.2809 21.9292 72.4389 20.061 74.468 15.7274Z" fill="url(#paint14_radial_15_444)"/>
<path style="mix-blend-mode:color-dodge" d="M222.444 202.473C226.867 200.646 228.971 195.58 227.145 191.157C225.318 186.734 220.252 184.63 215.829 186.456C211.407 188.283 209.302 193.349 211.129 197.772C212.955 202.195 218.021 204.299 222.444 202.473Z" fill="url(#paint15_radial_15_444)"/>
<path style="mix-blend-mode:color-dodge" d="M156.006 195.368C160.428 193.542 162.533 188.476 160.706 184.053C158.88 179.63 153.814 177.526 149.391 179.352C144.968 181.179 142.864 186.245 144.69 190.668C146.517 195.09 151.583 197.195 156.006 195.368Z" fill="url(#paint16_radial_15_444)"/>
<path style="mix-blend-mode:color-dodge" d="M71.9591 164.2C76.7424 164.067 80.5123 160.082 80.3796 155.299C80.2468 150.515 76.2616 146.745 71.4783 146.878C66.695 147.011 62.925 150.996 63.0578 155.78C63.1906 160.563 67.1758 164.333 71.9591 164.2Z" fill="url(#paint17_radial_15_444)"/>
<path style="mix-blend-mode:color-dodge" d="M25.7438 92.2951C30.0963 90.307 32.013 85.1668 30.0249 80.8143C28.0367 76.4617 22.8966 74.545 18.5441 76.5332C14.1915 78.5213 12.2748 83.6615 14.263 88.014C16.2511 92.3666 21.3913 94.2833 25.7438 92.2951Z" fill="url(#paint18_radial_15_444)"/>
<path style="mix-blend-mode:color-dodge" d="M20.0125 177.212C22.273 172.995 20.6865 167.743 16.4689 165.483C12.2514 163.222 6.99991 164.809 4.73944 169.026C2.47896 173.244 4.06548 178.495 8.28301 180.756C12.5005 183.016 17.752 181.43 20.0125 177.212Z" fill="url(#paint19_radial_15_444)"/>
<defs>
<radialGradient id="paint0_radial_15_444" cx="0" cy="0" r="1" gradientUnits="userSpaceOnUse" gradientTransform="translate(211.912 63.7054) rotate(94.18) scale(8.58417)">
<stop stop-color="#80E4FD"/>
<stop offset="0.03" stop-color="#72CCE3" stop-opacity="0.9"/>
<stop offset="0.1" stop-color="#5BA2B4" stop-opacity="0.71"/>
<stop offset="0.17" stop-color="#457B89" stop-opacity="0.54"/>
<stop offset="0.24" stop-color="#325A64" stop-opacity="0.4"/>
<stop offset="0.32" stop-color="#223E44" stop-opacity="0.27"/>
<stop offset="0.41" stop-color="#16272B" stop-opacity="0.17"/>
<stop offset="0.5" stop-color="#0C1518" stop-opacity="0.1"/>
<stop offset="0.61" stop-color="#05090A" stop-opacity="0.04"/>
<stop offset="0.75" stop-color="#010202" stop-opacity="0"/>
<stop offset="1" stop-opacity="0"/>
</radialGradient>
<radialGradient id="paint1_radial_15_444" cx="0" cy="0" r="1" gradientUnits="userSpaceOnUse" gradientTransform="translate(213.571 161.384) rotate(94.18) scale(3.53168)">
<stop stop-color="#80E4FD"/>
<stop offset="0.03" stop-color="#72CCE3" stop-opacity="0.9"/>
<stop offset="0.1" stop-color="#5BA2B4" stop-opacity="0.71"/>
<stop offset="0.17" stop-color="#457B89" stop-opacity="0.54"/>
<stop offset="0.24" stop-color="#325A64" stop-opacity="0.4"/>
<stop offset="0.32" stop-color="#223E44" stop-opacity="0.27"/>
<stop offset="0.41" stop-color="#16272B" stop-opacity="0.17"/>
<stop offset="0.5" stop-color="#0C1518" stop-opacity="0.1"/>
<stop offset="0.61" stop-color="#05090A" stop-opacity="0.04"/>
<stop offset="0.75" stop-color="#010202" stop-opacity="0"/>
<stop offset="1" stop-opacity="0"/>
</radialGradient>
<radialGradient id="paint2_radial_15_444" cx="0" cy="0" r="1" gradientUnits="userSpaceOnUse" gradientTransform="translate(202.864 140.713) rotate(94.18) scale(3.53168)">
<stop stop-color="#80E4FD"/>
<stop offset="0.03" stop-color="#72CCE3" stop-opacity="0.9"/>
<stop offset="0.1" stop-color="#5BA2B4" stop-opacity="0.71"/>
<stop offset="0.17" stop-color="#457B89" stop-opacity="0.54"/>
<stop offset="0.24" stop-color="#325A64" stop-opacity="0.4"/>
<stop offset="0.32" stop-color="#223E44" stop-opacity="0.27"/>
<stop offset="0.41" stop-color="#16272B" stop-opacity="0.17"/>
<stop offset="0.5" stop-color="#0C1518" stop-opacity="0.1"/>
<stop offset="0.61" stop-color="#05090A" stop-opacity="0.04"/>
<stop offset="0.75" stop-color="#010202" stop-opacity="0"/>
<stop offset="1" stop-opacity="0"/>
</radialGradient>
<radialGradient id="paint3_radial_15_444" cx="0" cy="0" r="1" gradientUnits="userSpaceOnUse" gradientTransform="translate(189.943 85.9687) rotate(94.18) scale(3.53169 3.53168)">
<stop stop-color="#80E4FD"/>
<stop offset="0.03" stop-color="#72CCE3" stop-opacity="0.9"/>
<stop offset="0.1" stop-color="#5BA2B4" stop-opacity="0.71"/>
<stop offset="0.17" stop-color="#457B89" stop-opacity="0.54"/>
<stop offset="0.24" stop-color="#325A64" stop-opacity="0.4"/>
<stop offset="0.32" stop-color="#223E44" stop-opacity="0.27"/>
<stop offset="0.41" stop-color="#16272B" stop-opacity="0.17"/>
<stop offset="0.5" stop-color="#0C1518" stop-opacity="0.1"/>
<stop offset="0.61" stop-color="#05090A" stop-opacity="0.04"/>
<stop offset="0.75" stop-color="#010202" stop-opacity="0"/>
<stop offset="1" stop-opacity="0"/>
</radialGradient>
<radialGradient id="paint4_radial_15_444" cx="0" cy="0" r="1" gradientUnits="userSpaceOnUse" gradientTransform="translate(110.905 16.2895) rotate(94.18) scale(3.53169 3.53169)">
<stop stop-color="#80E4FD"/>
<stop offset="0.03" stop-color="#72CCE3" stop-opacity="0.9"/>
<stop offset="0.1" stop-color="#5BA2B4" stop-opacity="0.71"/>
<stop offset="0.17" stop-color="#457B89" stop-opacity="0.54"/>
<stop offset="0.24" stop-color="#325A64" stop-opacity="0.4"/>
<stop offset="0.32" stop-color="#223E44" stop-opacity="0.27"/>
<stop offset="0.41" stop-color="#16272B" stop-opacity="0.17"/>
<stop offset="0.5" stop-color="#0C1518" stop-opacity="0.1"/>
<stop offset="0.61" stop-color="#05090A" stop-opacity="0.04"/>
<stop offset="0.75" stop-color="#010202" stop-opacity="0"/>
<stop offset="1" stop-opacity="0"/>
</radialGradient>
<radialGradient id="paint5_radial_15_444" cx="0" cy="0" r="1" gradientUnits="userSpaceOnUse" gradientTransform="translate(210.026 18.2055) rotate(94.18) scale(3.53169 3.53168)">
<stop stop-color="#80E4FD"/>
<stop offset="0.03" stop-color="#72CCE3" stop-opacity="0.9"/>
<stop offset="0.1" stop-color="#5BA2B4" stop-opacity="0.71"/>
<stop offset="0.17" stop-color="#457B89" stop-opacity="0.54"/>
<stop offset="0.24" stop-color="#325A64" stop-opacity="0.4"/>
<stop offset="0.32" stop-color="#223E44" stop-opacity="0.27"/>
<stop offset="0.41" stop-color="#16272B" stop-opacity="0.17"/>
<stop offset="0.5" stop-color="#0C1518" stop-opacity="0.1"/>
<stop offset="0.61" stop-color="#05090A" stop-opacity="0.04"/>
<stop offset="0.75" stop-color="#010202" stop-opacity="0"/>
<stop offset="1" stop-opacity="0"/>
</radialGradient>
<radialGradient id="paint6_radial_15_444" cx="0" cy="0" r="1" gradientUnits="userSpaceOnUse" gradientTransform="translate(172.842 236.233) rotate(94.18) scale(3.53168)">
<stop stop-color="#80E4FD"/>
<stop offset="0.03" stop-color="#72CCE3" stop-opacity="0.9"/>
<stop offset="0.1" stop-color="#5BA2B4" stop-opacity="0.71"/>
<stop offset="0.17" stop-color="#457B89" stop-opacity="0.54"/>
<stop offset="0.24" stop-color="#325A64" stop-opacity="0.4"/>
<stop offset="0.32" stop-color="#223E44" stop-opacity="0.27"/>
<stop offset="0.41" stop-color="#16272B" stop-opacity="0.17"/>
<stop offset="0.5" stop-color="#0C1518" stop-opacity="0.1"/>
<stop offset="0.61" stop-color="#05090A" stop-opacity="0.04"/>
<stop offset="0.75" stop-color="#010202" stop-opacity="0"/>
<stop offset="1" stop-opacity="0"/>
</radialGradient>
<radialGradient id="paint7_radial_15_444" cx="0" cy="0" r="1" gradientUnits="userSpaceOnUse" gradientTransform="translate(10.494 66.3554) rotate(94.18) scale(3.53168 3.53169)">
<stop stop-color="#80E4FD"/>
<stop offset="0.03" stop-color="#72CCE3" stop-opacity="0.9"/>
<stop offset="0.1" stop-color="#5BA2B4" stop-opacity="0.71"/>
<stop offset="0.17" stop-color="#457B89" stop-opacity="0.54"/>
<stop offset="0.24" stop-color="#325A64" stop-opacity="0.4"/>
<stop offset="0.32" stop-color="#223E44" stop-opacity="0.27"/>
<stop offset="0.41" stop-color="#16272B" stop-opacity="0.17"/>
<stop offset="0.5" stop-color="#0C1518" stop-opacity="0.1"/>
<stop offset="0.61" stop-color="#05090A" stop-opacity="0.04"/>
<stop offset="0.75" stop-color="#010202" stop-opacity="0"/>
<stop offset="1" stop-opacity="0"/>
</radialGradient>
<radialGradient id="paint8_radial_15_444" cx="0" cy="0" r="1" gradientUnits="userSpaceOnUse" gradientTransform="translate(70.9752 182.007) rotate(94.18) scale(3.53168)">
<stop stop-color="#80E4FD"/>
<stop offset="0.03" stop-color="#72CCE3" stop-opacity="0.9"/>
<stop offset="0.1" stop-color="#5BA2B4" stop-opacity="0.71"/>
<stop offset="0.17" stop-color="#457B89" stop-opacity="0.54"/>
<stop offset="0.24" stop-color="#325A64" stop-opacity="0.4"/>
<stop offset="0.32" stop-color="#223E44" stop-opacity="0.27"/>
<stop offset="0.41" stop-color="#16272B" stop-opacity="0.17"/>
<stop offset="0.5" stop-color="#0C1518" stop-opacity="0.1"/>
<stop offset="0.61" stop-color="#05090A" stop-opacity="0.04"/>
<stop offset="0.75" stop-color="#010202" stop-opacity="0"/>
<stop offset="1" stop-opacity="0"/>
</radialGradient>
<radialGradient id="paint9_radial_15_444" cx="0" cy="0" r="1" gradientUnits="userSpaceOnUse" gradientTransform="translate(58.5201 66.3508) rotate(94.18) scale(3.53168)">
<stop stop-color="#80E4FD"/>
<stop offset="0.03" stop-color="#72CCE3" stop-opacity="0.9"/>
<stop offset="0.1" stop-color="#5BA2B4" stop-opacity="0.71"/>
<stop offset="0.17" stop-color="#457B89" stop-opacity="0.54"/>
<stop offset="0.24" stop-color="#325A64" stop-opacity="0.4"/>
<stop offset="0.32" stop-color="#223E44" stop-opacity="0.27"/>
<stop offset="0.41" stop-color="#16272B" stop-opacity="0.17"/>
<stop offset="0.5" stop-color="#0C1518" stop-opacity="0.1"/>
<stop offset="0.61" stop-color="#05090A" stop-opacity="0.04"/>
<stop offset="0.75" stop-color="#010202" stop-opacity="0"/>
<stop offset="1" stop-opacity="0"/>
</radialGradient>
<radialGradient id="paint10_radial_15_444" cx="0" cy="0" r="1" gradientUnits="userSpaceOnUse" gradientTransform="translate(35.2309 188.019) rotate(94.18) scale(3.53169 3.53168)">
<stop stop-color="#80E4FD"/>
<stop offset="0.03" stop-color="#72CCE3" stop-opacity="0.9"/>
<stop offset="0.1" stop-color="#5BA2B4" stop-opacity="0.71"/>
<stop offset="0.17" stop-color="#457B89" stop-opacity="0.54"/>
<stop offset="0.24" stop-color="#325A64" stop-opacity="0.4"/>
<stop offset="0.32" stop-color="#223E44" stop-opacity="0.27"/>
<stop offset="0.41" stop-color="#16272B" stop-opacity="0.17"/>
<stop offset="0.5" stop-color="#0C1518" stop-opacity="0.1"/>
<stop offset="0.61" stop-color="#05090A" stop-opacity="0.04"/>
<stop offset="0.75" stop-color="#010202" stop-opacity="0"/>
<stop offset="1" stop-opacity="0"/>
</radialGradient>
<radialGradient id="paint11_radial_15_444" cx="0" cy="0" r="1" gradientUnits="userSpaceOnUse" gradientTransform="translate(111.683 221.11) rotate(94.18) scale(8.58418 8.58418)">
<stop stop-color="#80E4FD"/>
<stop offset="0.03" stop-color="#72CCE3" stop-opacity="0.9"/>
<stop offset="0.1" stop-color="#5BA2B4" stop-opacity="0.71"/>
<stop offset="0.17" stop-color="#457B89" stop-opacity="0.54"/>
<stop offset="0.24" stop-color="#325A64" stop-opacity="0.4"/>
<stop offset="0.32" stop-color="#223E44" stop-opacity="0.27"/>
<stop offset="0.41" stop-color="#16272B" stop-opacity="0.17"/>
<stop offset="0.5" stop-color="#0C1518" stop-opacity="0.1"/>
<stop offset="0.61" stop-color="#05090A" stop-opacity="0.04"/>
<stop offset="0.75" stop-color="#010202" stop-opacity="0"/>
<stop offset="1" stop-opacity="0"/>
</radialGradient>
<radialGradient id="paint12_radial_15_444" cx="0" cy="0" r="1" gradientUnits="userSpaceOnUse" gradientTransform="translate(235.339 140.73) rotate(94.19) scale(8.58417 8.58417)">
<stop stop-color="#80E4FD"/>
<stop offset="0.03" stop-color="#72CCE3" stop-opacity="0.9"/>
<stop offset="0.1" stop-color="#5BA2B4" stop-opacity="0.71"/>
<stop offset="0.17" stop-color="#457B89" stop-opacity="0.54"/>
<stop offset="0.24" stop-color="#325A64" stop-opacity="0.4"/>
<stop offset="0.32" stop-color="#223E44" stop-opacity="0.27"/>
<stop offset="0.41" stop-color="#16272B" stop-opacity="0.17"/>
<stop offset="0.5" stop-color="#0C1518" stop-opacity="0.1"/>
<stop offset="0.61" stop-color="#05090A" stop-opacity="0.04"/>
<stop offset="0.75" stop-color="#010202" stop-opacity="0"/>
<stop offset="1" stop-opacity="0"/>
</radialGradient>
<radialGradient id="paint13_radial_15_444" cx="0" cy="0" r="1" gradientUnits="userSpaceOnUse" gradientTransform="translate(136.61 14.2589) rotate(94.19) scale(8.58417 8.58417)">
<stop stop-color="#80E4FD"/>
<stop offset="0.03" stop-color="#72CCE3" stop-opacity="0.9"/>
<stop offset="0.1" stop-color="#5BA2B4" stop-opacity="0.71"/>
<stop offset="0.17" stop-color="#457B89" stop-opacity="0.54"/>
<stop offset="0.24" stop-color="#325A64" stop-opacity="0.4"/>
<stop offset="0.32" stop-color="#223E44" stop-opacity="0.27"/>
<stop offset="0.41" stop-color="#16272B" stop-opacity="0.17"/>
<stop offset="0.5" stop-color="#0C1518" stop-opacity="0.1"/>
<stop offset="0.61" stop-color="#05090A" stop-opacity="0.04"/>
<stop offset="0.75" stop-color="#010202" stop-opacity="0"/>
<stop offset="1" stop-opacity="0"/>
</radialGradient>
<radialGradient id="paint14_radial_15_444" cx="0" cy="0" r="1" gradientUnits="userSpaceOnUse" gradientTransform="translate(67.8117 14.2504) rotate(94.19) scale(0.109884)">
<stop stop-color="#80E4FD"/>
<stop offset="0.03" stop-color="#72CCE3" stop-opacity="0.9"/>
<stop offset="0.1" stop-color="#5BA2B4" stop-opacity="0.71"/>
<stop offset="0.17" stop-color="#457B89" stop-opacity="0.54"/>
<stop offset="0.24" stop-color="#325A64" stop-opacity="0.4"/>
<stop offset="0.32" stop-color="#223E44" stop-opacity="0.27"/>
<stop offset="0.41" stop-color="#16272B" stop-opacity="0.17"/>
<stop offset="0.5" stop-color="#0C1518" stop-opacity="0.1"/>
<stop offset="0.61" stop-color="#05090A" stop-opacity="0.04"/>
<stop offset="0.75" stop-color="#010202" stop-opacity="0"/>
<stop offset="1" stop-opacity="0"/>
</radialGradient>
<radialGradient id="paint15_radial_15_444" cx="0" cy="0" r="1" gradientUnits="userSpaceOnUse" gradientTransform="translate(218.953 195.023) rotate(94.18) scale(8.58417)">
<stop stop-color="#80E4FD"/>
<stop offset="0.03" stop-color="#72CCE3" stop-opacity="0.9"/>
<stop offset="0.1" stop-color="#5BA2B4" stop-opacity="0.71"/>
<stop offset="0.17" stop-color="#457B89" stop-opacity="0.54"/>
<stop offset="0.24" stop-color="#325A64" stop-opacity="0.4"/>
<stop offset="0.32" stop-color="#223E44" stop-opacity="0.27"/>
<stop offset="0.41" stop-color="#16272B" stop-opacity="0.17"/>
<stop offset="0.5" stop-color="#0C1518" stop-opacity="0.1"/>
<stop offset="0.61" stop-color="#05090A" stop-opacity="0.04"/>
<stop offset="0.75" stop-color="#010202" stop-opacity="0"/>
<stop offset="1" stop-opacity="0"/>
</radialGradient>
<radialGradient id="paint16_radial_15_444" cx="0" cy="0" r="1" gradientUnits="userSpaceOnUse" gradientTransform="translate(153.117 187.984) rotate(94.18) scale(8.58417)">
<stop stop-color="#80E4FD"/>
<stop offset="0.03" stop-color="#72CCE3" stop-opacity="0.9"/>
<stop offset="0.1" stop-color="#5BA2B4" stop-opacity="0.71"/>
<stop offset="0.17" stop-color="#457B89" stop-opacity="0.54"/>
<stop offset="0.24" stop-color="#325A64" stop-opacity="0.4"/>
<stop offset="0.32" stop-color="#223E44" stop-opacity="0.27"/>
<stop offset="0.41" stop-color="#16272B" stop-opacity="0.17"/>
<stop offset="0.5" stop-color="#0C1518" stop-opacity="0.1"/>
<stop offset="0.61" stop-color="#05090A" stop-opacity="0.04"/>
<stop offset="0.75" stop-color="#010202" stop-opacity="0"/>
<stop offset="1" stop-opacity="0"/>
</radialGradient>
<radialGradient id="paint17_radial_15_444" cx="0" cy="0" r="1" gradientUnits="userSpaceOnUse" gradientTransform="translate(72.8578 156.454) rotate(94.18) scale(8.58418 8.58417)">
<stop stop-color="#80E4FD"/>
<stop offset="0.03" stop-color="#72CCE3" stop-opacity="0.9"/>
<stop offset="0.1" stop-color="#5BA2B4" stop-opacity="0.71"/>
<stop offset="0.17" stop-color="#457B89" stop-opacity="0.54"/>
<stop offset="0.24" stop-color="#325A64" stop-opacity="0.4"/>
<stop offset="0.32" stop-color="#223E44" stop-opacity="0.27"/>
<stop offset="0.41" stop-color="#16272B" stop-opacity="0.17"/>
<stop offset="0.5" stop-color="#0C1518" stop-opacity="0.1"/>
<stop offset="0.61" stop-color="#05090A" stop-opacity="0.04"/>
<stop offset="0.75" stop-color="#010202" stop-opacity="0"/>
<stop offset="1" stop-opacity="0"/>
</radialGradient>
<radialGradient id="paint18_radial_15_444" cx="0" cy="0" r="1" gradientUnits="userSpaceOnUse" gradientTransform="translate(23.7265 85.9649) rotate(94.18) scale(8.58417 8.58417)">
<stop stop-color="#80E4FD"/>
<stop offset="0.03" stop-color="#72CCE3" stop-opacity="0.9"/>
<stop offset="0.1" stop-color="#5BA2B4" stop-opacity="0.71"/>
<stop offset="0.17" stop-color="#457B89" stop-opacity="0.54"/>
<stop offset="0.24" stop-color="#325A64" stop-opacity="0.4"/>
<stop offset="0.32" stop-color="#223E44" stop-opacity="0.27"/>
<stop offset="0.41" stop-color="#16272B" stop-opacity="0.17"/>
<stop offset="0.5" stop-color="#0C1518" stop-opacity="0.1"/>
<stop offset="0.61" stop-color="#05090A" stop-opacity="0.04"/>
<stop offset="0.75" stop-color="#010202" stop-opacity="0"/>
<stop offset="1" stop-opacity="0"/>
</radialGradient>
<radialGradient id="paint19_radial_15_444" cx="0" cy="0" r="1" gradientUnits="userSpaceOnUse" gradientTransform="translate(14.0454 173.882) rotate(94.18) scale(8.58417 8.58418)">
<stop stop-color="#80E4FD"/>
<stop offset="0.03" stop-color="#72CCE3" stop-opacity="0.9"/>
<stop offset="0.1" stop-color="#5BA2B4" stop-opacity="0.71"/>
<stop offset="0.17" stop-color="#457B89" stop-opacity="0.54"/>
<stop offset="0.24" stop-color="#325A64" stop-opacity="0.4"/>
<stop offset="0.32" stop-color="#223E44" stop-opacity="0.27"/>
<stop offset="0.41" stop-color="#16272B" stop-opacity="0.17"/>
<stop offset="0.5" stop-color="#0C1518" stop-opacity="0.1"/>
<stop offset="0.61" stop-color="#05090A" stop-opacity="0.04"/>
<stop offset="0.75" stop-color="#010202" stop-opacity="0"/>
<stop offset="1" stop-opacity="0"/>
</radialGradient>
</defs>
</svg>
